<svg preserveAspectRatio="none" width="100%" height="100%" overflow="visible" style="display: block;" viewBox="0 0 24 24" fill="none" xmlns="http://www.w3.org/2000/svg">
<g id="iconixto/linear/bag-2">
<g id="icon">
<path d="M9 11C9 11.5523 8.55228 12 8 12C7.44772 12 7 11.5523 7 11C7 10.4477 7.44772 10 8 10C8.55228 10 9 10.4477 9 11Z" fill="var(--fill-0, white)"/>
<path d="M16 12C16.5523 12 17 11.5523 17 11C17 10.4477 16.5523 10 16 10C15.4477 10 15 10.4477 15 11C15 11.5523 15.4477 12 16 12Z" fill="var(--fill-0, white)"/>
<path fill-rule="evenodd" clip-rule="evenodd" d="M7.2505 7.02763C7.25017 7.01846 7.25 7.00925 7.25 7C7.25 4.37665 9.37665 2.25 12 2.25C14.6234 2.25 16.75 4.37665 16.75 7C16.75 7.00925 16.7498 7.01846 16.7495 7.02763C18.4963 7.23363 19.9284 8.5707 20.2237 10.3424L21.2237 16.3424C21.6301 18.7805 19.7499 21 17.2781 21H6.72182C4.25006 21 2.36988 18.7805 2.77624 16.3424L3.77624 10.3424C4.07153 8.57068 5.50366 7.2336 7.2505 7.02763ZM8.75 7C8.75 5.20507 10.2051 3.75 12 3.75C13.7949 3.75 15.25 5.20507 15.25 7H8.75ZM4.25583 16.589L5.25583 10.589C5.45674 9.38353 6.49972 8.5 7.72181 8.5H16.2781C17.5002 8.5 18.5432 9.38353 18.7441 10.589L19.7441 16.589C19.9981 18.1128 18.823 19.5 17.2781 19.5H6.72182C5.17697 19.5 4.00186 18.1128 4.25583 16.589Z" fill="var(--fill-0, white)"/>
</g>
</g>
</svg>
