<?xml version="1.0" encoding="utf-8"?>
<!-- Generator: Adobe Illustrator 27.3.1, SVG Export Plug-In . SVG Version: 6.00 Build 0)  -->
<svg version="1.1" id="Logo_Color" xmlns="http://www.w3.org/2000/svg" xmlns:xlink="http://www.w3.org/1999/xlink" x="0px" y="0px"
	 viewBox="0 0 1000 1000" style="enable-background:new 0 0 1000 1000;" xml:space="preserve">
<style type="text/css">
	.st0{fill:#4D4D4D;}
	.st1{fill:#FFFFFF;}
	.st2{fill:url(#SVGID_1_);}
	.st3{fill:none;}
	.st4{fill:#3E9C35;}
	.st5{fill:url(#SVGID_00000065068390984493757630000016023324975750026419_);}
	.st6{fill:url(#SVGID_00000002354599621502565920000015674903155744243102_);}
	.st7{fill:url(#SVGID_00000176016724658728188410000010819845763287799204_);}
	.st8{fill:url(#SVGID_00000057846079712370958360000001990920424863437984_);}
	.st9{fill:url(#SVGID_00000078021098668921522770000015893534240426405024_);}
	.st10{fill:url(#SVGID_00000140696053564456311710000005613789760140280249_);}
	.st11{fill:url(#SVGID_00000114786718606153522800000009180683629976293025_);}
	.st12{fill:url(#SVGID_00000171691893990162326850000004864374253074767242_);}
	.st13{fill:url(#SVGID_00000121270413467649351410000009436886093819828412_);}
	.st14{fill:url(#SVGID_00000100353268589243456900000016623321445692621451_);}
	.st15{fill:url(#SVGID_00000099627548364469567290000015416985794832642181_);}
	.st16{fill:url(#SVGID_00000163073442738442325560000006144235764673198257_);}
	.st17{fill:url(#SVGID_00000164474085570838563290000007853753766908218808_);}
	.st18{fill:url(#SVGID_00000161632509868823690680000015218373574349407912_);}
	.st19{fill:url(#SVGID_00000143601280018796854500000005975256169944810416_);}
	.st20{fill:url(#SVGID_00000111193407384089302490000004676004434548506291_);}
	.st21{fill:url(#SVGID_00000018917867488529600480000012906539323031871667_);}
	.st22{fill:url(#SVGID_00000011007647654930499280000006364132101209206718_);}
	.st23{fill:url(#SVGID_00000152982286536301341210000001517479151978606758_);}
	.st24{fill:url(#SVGID_00000170968254746495921410000002045147530081423506_);}
	.st25{fill:url(#SVGID_00000170279498776272567550000002672721826272023191_);}
	.st26{fill:url(#SVGID_00000067946738912117434040000014932567060904017557_);}
	.st27{fill:url(#SVGID_00000083799964416946110240000000665642668385862557_);}
	.st28{fill:url(#SVGID_00000155869525908815931130000002470353837926464405_);}
	.st29{fill:url(#SVGID_00000065759610536623645590000007325146135486384295_);}
	.st30{fill:url(#SVGID_00000162318442917410337450000003748695292717564576_);}
	.st31{fill:url(#SVGID_00000013169127775575507730000016880043133467417532_);}
	.st32{fill:url(#SVGID_00000046327577909483336630000004769254781617766806_);}
	.st33{fill:url(#SVGID_00000115512122231158703970000013335933499237886619_);}
	.st34{fill:url(#SVGID_00000078748071062570931720000008735705926049668248_);}
	.st35{fill:url(#SVGID_00000062161422444833593490000001215379086811422627_);}
	.st36{fill:url(#SVGID_00000169536828039073603090000010044018412460047513_);}
	.st37{fill:url(#SVGID_00000030487739094023801640000008568656573666703511_);}
	.st38{fill:url(#SVGID_00000063596997718807298590000017184107311967003794_);}
	.st39{fill:url(#SVGID_00000173851826136802750780000014170267037785707411_);}
	.st40{fill:url(#SVGID_00000102512023383000336760000016002295294262868412_);}
	.st41{fill:url(#SVGID_00000142871485939816659870000017136850340842212284_);}
	.st42{fill:url(#SVGID_00000092434386316201751420000005800039652840739226_);}
	.st43{fill:url(#SVGID_00000174564106339934912160000012595600047245662137_);}
	.st44{fill:url(#SVGID_00000039103210745357754220000006553882751694395834_);}
	.st45{fill:url(#SVGID_00000087394698473893457470000013580432739942400436_);}
	.st46{fill:url(#SVGID_00000131344030022449383320000005806078468045655213_);}
	.st47{fill:url(#SVGID_00000148632905293845570370000001148884231246760091_);}
	.st48{fill:url(#SVGID_00000088823631434785579880000017397501659152604801_);}
	.st49{fill:url(#SVGID_00000145042667780972784450000006815614793804092598_);}
	.st50{fill:url(#SVGID_00000057123888006524270080000000187470982710041783_);}
	.st51{fill:url(#SVGID_00000176753941643996208600000011974032329013384867_);}
	.st52{fill:url(#SVGID_00000165943771042798111630000014186205636362666149_);}
	.st53{fill:url(#SVGID_00000091012270500407712050000002754074833900361611_);}
	.st54{fill:url(#SVGID_00000157306428907354623070000015870964089028811155_);}
	.st55{fill:url(#SVGID_00000114039231752225983970000001316629622116251821_);}
	.st56{fill:url(#SVGID_00000054243289894407503130000006409827152177709725_);}
	.st57{fill:url(#SVGID_00000043436379415837418220000003024647986414490542_);}
	.st58{fill:url(#SVGID_00000108266629852545720230000014380396033546738364_);}
	.st59{fill:#333333;}
	.st60{fill:url(#SVGID_00000131362940709591068120000009622614695623869071_);}
	.st61{fill:url(#SVGID_00000116942633914541402230000007762029020803804816_);}
	.st62{fill:url(#SVGID_00000124150975676148789980000007371966018402180509_);}
	.st63{fill:url(#SVGID_00000171715385642352235290000017147600509518953118_);}
	.st64{fill:url(#SVGID_00000068648152631445443030000011557705141550601387_);}
	.st65{fill:url(#SVGID_00000029039176952424573880000009215037605001121443_);}
	.st66{fill:url(#SVGID_00000010288623821147591280000014737637763931661977_);}
	.st67{fill:url(#SVGID_00000017476102051546034970000008685755924748592048_);}
	.st68{fill:url(#SVGID_00000143583678332206200210000001669156461411019158_);}
	.st69{fill:url(#SVGID_00000071532001584573791150000003889898519662752669_);}
	.st70{fill:url(#SVGID_00000152942980698190903610000018352673596341393539_);}
	.st71{fill:url(#SVGID_00000146486410586268421810000011742947407416666012_);}
	.st72{fill:url(#SVGID_00000014615527970725297300000005878005170173425301_);}
	.st73{fill:url(#SVGID_00000062181593798425453910000009603293480567197358_);}
	.st74{fill:url(#SVGID_00000127037119777018878860000003028763126168602535_);}
	.st75{fill:url(#SVGID_00000098181934300354027530000004519557195862954397_);}
	.st76{fill:#F2F2F2;}
	.st77{fill:url(#SVGID_00000036938389210657944590000013257828663751719609_);}
	.st78{fill:url(#SVGID_00000039848317742781500180000014439586855924862910_);}
	.st79{fill:url(#SVGID_00000129897386561805613150000017980267956306495904_);}
	.st80{fill:url(#SVGID_00000072255684122519563860000006641201602960051612_);}
	.st81{fill:url(#SVGID_00000005977119592563023670000001653883618148446094_);}
	.st82{fill:url(#SVGID_00000093155916892218364340000012803403250809842586_);}
	.st83{fill:url(#SVGID_00000160873057237433463550000014745666929627426998_);}
	.st84{fill:url(#SVGID_00000018936273300800654470000007532880563455860110_);}
	.st85{fill:url(#SVGID_00000068644308197470137400000009911795720029989553_);}
	.st86{fill:url(#SVGID_00000146460780294822014690000012286768986114055836_);}
	.st87{fill:url(#SVGID_00000016776775654157231950000001422204013616103811_);}
	.st88{fill:url(#SVGID_00000119823637553947002780000001737606427238102965_);}
	.st89{fill:url(#SVGID_00000120536651441718142240000004517809019130777010_);}
	.st90{fill:url(#SVGID_00000100343278181227911560000017703812634462215324_);}
	.st91{fill:url(#SVGID_00000119076036899080763710000012464590034690819995_);}
	.st92{fill:url(#SVGID_00000127019834726378550810000006530753421463955386_);}
	.st93{fill:url(#SVGID_00000004542960856416954390000012019128083617602707_);}
	.st94{fill:url(#SVGID_00000048470161042056967740000005484735172057897623_);}
	.st95{fill:url(#SVGID_00000041997979886047748300000000627306209214855845_);}
	.st96{fill:url(#SVGID_00000084503267484464509420000010887811411739645357_);}
	.st97{fill:url(#SVGID_00000123407873474968454460000012407932748495510931_);}
	.st98{fill:url(#SVGID_00000096025400011455261570000006124913910355971504_);}
	.st99{fill:url(#SVGID_00000176758978798911891590000000933189184430138038_);}
	.st100{fill:url(#SVGID_00000134233263182172148020000012922695688075601329_);}
	.st101{fill:url(#SVGID_00000067959085874981669050000002313990204743626682_);}
	.st102{fill:url(#SVGID_00000013156667262181238740000004000560867506645426_);}
	.st103{fill:url(#SVGID_00000043446053722396110580000006926100596735632518_);}
	.st104{fill:url(#SVGID_00000025412177741121335550000009150148549828398976_);}
	.st105{fill:url(#SVGID_00000166669974302172237810000015797934833545148835_);}
	.st106{fill:url(#SVGID_00000087370643662026303740000008342061514990526595_);}
	.st107{fill:url(#SVGID_00000163063394104905534390000017615535834658434981_);}
	.st108{fill:url(#SVGID_00000121239529068623585250000005377495630440707487_);}
	.st109{fill:url(#SVGID_00000009583768181424936590000013506924827272090242_);}
	.st110{fill:url(#SVGID_00000083804673550520987320000009077287184750065293_);}
	.st111{fill:url(#SVGID_00000096773862360220553260000004382187775587756466_);}
	.st112{fill:url(#SVGID_00000076577902731292075000000002561200691645251728_);}
	.st113{fill:url(#SVGID_00000005963732794115854360000013938879968687341700_);}
	.st114{fill:url(#SVGID_00000078741524388545217730000007971569753580576404_);}
	.st115{fill:url(#SVGID_00000133498079764124758410000018190173908504581269_);}
	.st116{fill:url(#SVGID_00000145774822348027981910000008577344498677088184_);}
	.st117{fill:url(#SVGID_00000062180668190218909520000003494662008537010107_);}
	.st118{fill:url(#SVGID_00000176741456171683885330000001989055381905793420_);}
	.st119{fill:url(#SVGID_00000167392101496723468270000011737170453029652663_);}
	.st120{fill:url(#SVGID_00000117671298715418931300000000965015104956891794_);}
	.st121{fill:url(#SVGID_00000019660799099228921400000003917074390055062447_);}
	.st122{fill:url(#SVGID_00000002345055202938813400000016499565731375081633_);}
	.st123{fill:url(#SVGID_00000054241710385884360610000009304768664668449940_);}
	.st124{fill:url(#SVGID_00000136389106109309103520000005093294341121134763_);}
	.st125{fill:url(#SVGID_00000094581546115883946720000015884080208079409282_);}
	.st126{fill:url(#SVGID_00000176754939077227775890000006979987031729883067_);}
	.st127{fill:url(#SVGID_00000004506954698387010000000001676359447178848412_);}
	.st128{fill:url(#SVGID_00000170268318853381222820000013013063421257904036_);}
	.st129{fill:url(#SVGID_00000140013473259215205370000008583837707889932965_);}
	.st130{fill:url(#SVGID_00000003818406288881869000000012556025114053981872_);}
</style>
<linearGradient id="SVGID_1_" gradientUnits="userSpaceOnUse" x1="1019.3909" y1="19.5307" x2="472.2409" y2="177.2979">
	<stop  offset="0" style="stop-color:#7A84ED"/>
	<stop  offset="1" style="stop-color:#00E9CE"/>
</linearGradient>
<path class="st2" d="M219.7,209c-0.1,2.5-0.8,4.6-1.2,6.9c-1.2,5.2-5.1,14.5-11.4,22c-6.2,7.7-14.5,14.2-22,17
	c-2.2,1-9,2.8-10.8,0.3c0,0-0.5-0.7-0.2-2.6c0.3-1.9,1.5-4.8,4.1-9.7c3.2-2.7,7.9-6.9,13.3-14c2.8-3.5,5.4-7.8,7.6-12.8
	c2.1-5,3.5-11.1,1.3-16.2c-2-5.2-8.2-9.5-16.6-12.1c-8.4-2.7-18.5-3.6-29.4-2.1c-10.9,1.3-22.6,5.1-33.3,12.2
	c-5.3,3.6-10.2,8.1-14.1,13.6c-3.9,5.5-6.9,11.8-7.6,18.9c1.3-8.5,6-16.9,13.3-24.2c7.5-7,17.5-12.9,29.2-16c5.8-1.7,12-2.7,18.3-3
	c6.3-0.4,12.9,0.1,19.2,1.6c6.3,1.5,12.6,4,16.4,7.6c3.7,3.6,4.7,8.3,3.4,14.6c0,0.7-1.5,5.9-5.2,12.2c-3.7,6.3-9.6,13.3-14.5,17.8
	c0.7-1.3,1.4-2.5,2.2-4.1c1.4-2.8,3.9-6.4,6.4-11c2.5-4.5,5.4-10.3,6.2-15.8c0-1.3,0.5-2.7,0.2-3.7c-0.1-0.5,0-1.1-0.1-1.6
	c-0.2-0.4-0.4-0.8-0.4-1.2c-0.8-1.4-1.2-2.6-3.8-4.1c-0.9-0.8-2.6-1.4-4.3-2.1c-1.4-0.8-3.8-1.2-5.7-1.9c-4.3-0.9-8.8-1.7-13.7-1.6
	c-9.7-0.2-20.4,1.9-30.3,6.1c-4.9,2.2-9.6,5-13.8,8.2c-4,3.4-7.5,7.2-10.1,11.5c-5.2,8.1-6.1,19.3-2.3,28.1c1,2.1,2.1,4.2,3.6,5.9
	c1.6,1.7,2.9,3.1,5.4,4.7c4.6,3.1,10.5,5.7,17.1,8.4c6.6,2.7,13.9,5.4,21.4,9.6c7.4,4.1,15,10.3,20,18.5c10,15.7,8.3,37.4-0.6,50.7
	c-8.6,13.9-20.7,23-33.1,29c-12.5,5.9-25.7,9.3-38.7,7.6c-3.2-0.5-6.4-1-9.4-2.4c-3.1-1.1-5.8-2.4-8.3-4.4
	c-5.1-3.6-8.9-9.9-9.2-15.7c-0.6-5.8,1.2-10.7,2.9-14.9c1.9-4.2,4.2-7.6,6.4-10.7c9.2-12.2,18.4-17.3,22.1-18.8
	c1.3-0.5,5.2-1.7,5.5-0.2c0.4,1.9-4.7,7-9.6,13.7c-4.9,6.5-9.7,15.3-11.1,20.5c-0.9,3.2-1.3,6.3-0.7,7.9c0.5,1.7,1.1,2.2,2.9,3.5
	c4.3,2.6,10.9,3.4,18.4,1.9c14.8-2.9,30.4-12.8,38.3-24.4c8.3-11.7,7.5-22.8,1.7-30.5c-5-7.1-16.4-11.1-25.5-14.5
	c-5.7-2.1-10.7-4-14.2-5.6c-1.7-0.8-3.1-1.4-4-1.9c-0.9-0.5-1.4-0.7-1.4-0.7c7.7,3.9,14,5.9,19.1,7.8c5.1,1.8,9.1,3.3,12,4.6
	c5.9,2.5,8.2,4.3,9.1,4.7c1.2,0.9-2.1-3.4-20.6-10.1c-4.6-1.8-10.2-3.7-16.7-6.9c-3.2-1.6-6.7-3.5-10.2-6c-3.6-2.6-7.5-5.9-10.6-9.9
	c-12.6-15.8-15.9-41.2-3.5-63c5.9-10.7,15.3-19.4,26-25.9c10.8-6.5,23-11,36.3-12.8c13.2-1.9,27.6-1.4,42.1,3.7
	c1.8,0.5,3.7,1.6,5.6,2.4c1.9,1,3.7,1.5,5.6,3.1c1.9,1.3,3.7,2.7,5.5,4.2c1.7,1.8,3.4,3.8,5,5.8c1.5,2.1,2.6,4.7,3.7,7.1
	c1,2.5,1.3,5.1,1.9,7.7C220,204.1,219.7,206.5,219.7,209z M110.4,187.3c-1.9,1.3-4,2.8-6.1,4.8c-2.2,1.8-4.3,4-6.5,6.6
	c-4.3,5.1-8.8,11.6-11.6,20.3c-2.7,8.6-3.3,17.9-1.5,27.2c1.9,9.2,6.3,18.5,13.9,25.6c7.8,7.1,15.9,10.4,23.5,13.5
	c7.6,2.9,14.6,5.1,20.7,7.8c12.5,5.2,17.8,11.9,20.3,18.5c0.4,0.8,0.6,1.6,0.8,2.4c-1.1-4.4-3.4-8.6-6.3-11.8
	c-3.6-3.9-8.6-7-14.5-9.6c-5.9-2.6-12.5-4.8-19.4-7.5c-6.9-2.7-14.2-5.7-21.3-11c-7.2-5.4-12.6-13.1-15.4-21.3
	c-3-8.2-3.7-16.9-2.5-25.2c1-8.4,4.6-16.5,9-23.2C98.3,197.4,104.1,191.7,110.4,187.3z M182.5,177.7c-3.1-0.7-8.7-2.2-17-2.3
	c-16.7-0.2-35.9,4-53,16.6c-1.7,1.3-1.2,1.1,1.3-0.7c2.5-1.9,7.4-4.9,15-8.3c15.3-6.3,34.4-9.8,55.1-4.8
	C186.1,178.9,185.6,178.4,182.5,177.7z M162.9,322.9c-0.1-1.4-0.1-2.7,0-3.9c-0.2-1.2-0.5-2.2-0.7-3.1c-0.2-0.9-0.3-1.8-0.6-2.5
	c-0.3-0.7-0.6-1.3-0.8-1.8c-0.9-2-1.1-2.3-0.6-0.9c5.9,13.2-0.6,27.2-10.5,36.8c-2.3,2.6-4.8,4.2-6.5,5.8c-1.9,1.4-3.4,2.5-4.5,3.2
	c-2.1,1.5-2.4,1.7-0.8,0.9C152.9,348.2,162.3,334.3,162.9,322.9z"/>
<linearGradient id="SVGID_00000107555753850407846460000015766757681085345977_" gradientUnits="userSpaceOnUse" x1="1052.3591" y1="133.8674" x2="505.2092" y2="291.6346">
	<stop  offset="0" style="stop-color:#7A84ED"/>
	<stop  offset="1" style="stop-color:#00E9CE"/>
</linearGradient>
<path style="fill:url(#SVGID_00000107555753850407846460000015766757681085345977_);" d="M649.2,209c-0.1,2.5-0.8,4.6-1.2,6.9
	c-1.2,5.2-5.1,14.5-11.4,22c-6.2,7.7-14.5,14.2-22,17c-2.2,1-9,2.8-10.8,0.3c0,0-0.5-0.7-0.2-2.6c0.3-1.9,1.5-4.8,4.1-9.7
	c3.2-2.7,7.9-6.9,13.3-14c2.8-3.5,5.4-7.8,7.6-12.8c2.1-5,3.5-11.1,1.3-16.2c-2-5.2-8.2-9.5-16.6-12.1c-8.4-2.7-18.5-3.6-29.4-2.1
	c-10.9,1.3-22.6,5.1-33.3,12.2c-5.3,3.6-10.2,8.1-14.1,13.6c-3.9,5.5-6.9,11.8-7.6,18.9c1.3-8.5,6-16.9,13.3-24.2
	c7.5-7,17.5-12.9,29.2-16c5.8-1.7,12-2.7,18.3-3c6.3-0.4,12.9,0.1,19.2,1.6c6.3,1.5,12.6,4,16.4,7.6c3.7,3.6,4.7,8.3,3.4,14.6
	c0,0.7-1.5,5.9-5.2,12.2c-3.7,6.3-9.6,13.3-14.5,17.8c0.7-1.3,1.4-2.5,2.2-4.1c1.4-2.8,3.9-6.4,6.4-11c2.5-4.5,5.4-10.3,6.2-15.8
	c0-1.3,0.5-2.7,0.2-3.7c-0.1-0.5,0-1.1-0.1-1.6c-0.2-0.4-0.4-0.8-0.4-1.2c-0.8-1.4-1.2-2.6-3.8-4.1c-0.9-0.8-2.6-1.4-4.3-2.1
	c-1.4-0.8-3.8-1.2-5.7-1.9c-4.3-0.9-8.8-1.7-13.7-1.6c-9.7-0.2-20.4,1.9-30.3,6.1c-4.9,2.2-9.6,5-13.8,8.2c-4,3.4-7.5,7.2-10.1,11.5
	c-5.2,8.1-6.1,19.3-2.3,28.1c1,2.1,2.1,4.2,3.6,5.9c1.6,1.7,2.9,3.1,5.4,4.7c4.6,3.1,10.5,5.7,17.1,8.4c6.6,2.7,13.9,5.4,21.4,9.6
	c7.4,4.1,15,10.3,20,18.5c10,15.7,8.3,37.4-0.6,50.7c-8.6,13.9-20.7,23-33.1,29c-12.5,5.9-25.7,9.3-38.7,7.6c-3.2-0.5-6.4-1-9.4-2.4
	c-3.1-1.1-5.8-2.4-8.3-4.4c-5.1-3.6-8.9-9.9-9.2-15.7c-0.6-5.8,1.2-10.7,2.9-14.9c1.9-4.2,4.2-7.6,6.4-10.7
	c9.2-12.2,18.4-17.3,22.1-18.8c1.3-0.5,5.2-1.7,5.5-0.2c0.4,1.9-4.7,7-9.6,13.7c-4.9,6.5-9.7,15.3-11.1,20.5
	c-0.9,3.2-1.3,6.3-0.7,7.9c0.5,1.7,1.1,2.2,2.9,3.5c4.3,2.6,10.9,3.4,18.4,1.9c14.8-2.9,30.4-12.8,38.3-24.4
	c8.3-11.7,7.5-22.8,1.7-30.5c-5-7.1-16.4-11.1-25.5-14.5c-5.7-2.1-10.7-4-14.2-5.6c-1.7-0.8-3.1-1.4-4-1.9c-0.9-0.5-1.4-0.7-1.4-0.7
	c7.7,3.9,14,5.9,19.1,7.8c5.1,1.8,9.1,3.3,12,4.6c5.9,2.5,8.2,4.3,9.1,4.7c1.2,0.9-2.1-3.4-20.6-10.1c-4.6-1.8-10.2-3.7-16.7-6.9
	c-3.2-1.6-6.7-3.5-10.2-6c-3.6-2.6-7.5-5.9-10.6-9.9c-12.6-15.8-15.9-41.2-3.5-63c5.9-10.7,15.3-19.4,26-25.9
	c10.8-6.5,23-11,36.3-12.8c13.2-1.9,27.6-1.4,42.1,3.7c1.8,0.5,3.7,1.6,5.6,2.4c1.9,1,3.7,1.5,5.6,3.1c1.9,1.3,3.7,2.7,5.5,4.2
	c1.7,1.8,3.4,3.8,5,5.8c1.5,2.1,2.6,4.7,3.7,7.1c1,2.5,1.3,5.1,1.9,7.7C649.5,204.1,649.2,206.5,649.2,209z M539.9,187.3
	c-1.9,1.3-4,2.8-6.1,4.8c-2.2,1.8-4.3,4-6.5,6.6c-4.3,5.1-8.8,11.6-11.6,20.3c-2.7,8.6-3.3,17.9-1.5,27.2
	c1.9,9.2,6.3,18.5,13.9,25.6c7.8,7.1,15.9,10.4,23.5,13.5c7.6,2.9,14.6,5.1,20.7,7.8c12.5,5.2,17.8,11.9,20.3,18.5
	c0.4,0.8,0.6,1.6,0.8,2.4c-1.1-4.4-3.4-8.6-6.3-11.8c-3.6-3.9-8.6-7-14.5-9.6c-5.9-2.6-12.5-4.8-19.4-7.5c-6.9-2.7-14.2-5.7-21.3-11
	c-7.2-5.4-12.6-13.1-15.4-21.3c-3-8.2-3.7-16.9-2.5-25.2c1-8.4,4.6-16.5,9-23.2C527.8,197.4,533.6,191.7,539.9,187.3z M612,177.7
	c-3.1-0.7-8.7-2.2-17-2.3c-16.7-0.2-35.9,4-53,16.6c-1.7,1.3-1.2,1.1,1.3-0.7c2.5-1.9,7.4-4.9,15-8.3c15.3-6.3,34.4-9.8,55.1-4.8
	C615.6,178.9,615.1,178.4,612,177.7z M592.3,322.9c-0.1-1.4-0.1-2.7,0-3.9c-0.2-1.2-0.5-2.2-0.7-3.1c-0.2-0.9-0.3-1.8-0.6-2.5
	c-0.3-0.7-0.6-1.3-0.8-1.8c-0.9-2-1.1-2.3-0.6-0.9c5.9,13.2-0.6,27.2-10.5,36.8c-2.3,2.6-4.8,4.2-6.5,5.8c-1.9,1.4-3.4,2.5-4.5,3.2
	c-2.1,1.5-2.4,1.7-0.8,0.9C582.4,348.2,591.8,334.3,592.3,322.9z"/>
<linearGradient id="SVGID_00000175291640726452974180000008926647925800935052_" gradientUnits="userSpaceOnUse" x1="1035.6554" y1="75.9372" x2="488.5054" y2="233.7044">
	<stop  offset="0" style="stop-color:#7A84ED"/>
	<stop  offset="1" style="stop-color:#00E9CE"/>
</linearGradient>
<path style="fill:url(#SVGID_00000175291640726452974180000008926647925800935052_);" d="M302,293.3c-2.4,5.5-5.1,11.3-8,17
	c-2.9,5.8-5.9,11.4-9.8,17c-3.8,5.5-8.2,10.8-13.4,15.2c-0.7,0.5-1.4,1.1-2,1.6c-0.8,0.6-1.9,1.3-2.8,1.9c-2,1.1-3.9,2.2-5.8,2.9
	c-1.9,0.8-3.7,1.3-5.5,1.7c-1.7,0.5-3.4,0.7-4.9,0.7c-3.7,0.3-6.6-0.4-8.6-1c-1-0.3-1.7-0.5-2.2-0.8c-0.5-0.2-0.7-0.3-0.7-0.3
	c8.1,3.4,15,1.6,19.4,0.3c4.5-1.6,6.7-3.3,7.4-3.7c0.6-0.5-0.3,0-2.9,1.2c-2.5,1.2-6.8,2.9-12.7,3.1c-2.9,0.2-6.2-0.4-9.6-1.6
	c-3.4-1.3-6.6-3.7-9.4-7.1c-1-1.2-1.9-2.6-2.7-4.1c-0.1,0.2-0.3,0.4-0.4,0.6c-1.3,1.8-2.8,3.5-4.3,5c-6.2,6-14.4,8.3-21.2,7.8
	c-6.9-0.5-12.2-3.6-15.5-6.6c-1.4-1.3-2.5-2.5-2.2-2.1c-1.4-1.7-2.3-2.8-2.7-3.6c-0.5-0.8-0.7-1.1-0.7-1.1c1.1,1.8,2.3,3.3,3.5,4.6
	c3.7,3.7,7.1,5.5,9.4,6.3c2.3,0.8,3.4,1,3.3,0.9c0-0.4-5.6-1.2-11.9-8c-2.9-3.4-5.7-8.5-6.6-15.2c-0.3-1.7-0.4-3.4-0.4-5.2
	c0-0.9,0-1.9,0.1-2.7c0-0.7,0.1-1.3,0.2-2c0.3-2.7,0.7-5.4,1.3-8.1c2.3-10.5,7.2-21.7,12.6-33c0.8-1.8,3.3-6.9,9.1-7.8
	c0.9-0.1,3.5-0.6,6.4,0.6c0,0,3.2,1.2,5.9,5.4c-1,2-3,5.9-6.3,12.9c-1.6,3.5-3.5,7.7-5.5,12.8c-1.9,5.1-4.1,11.3-4.8,18.2
	c2.2-8.2,7.6-19.2,13.6-33.6c0.2-0.4,2.4-6,3.6-9.4c0.3,0.5,0.6,1.1,0.9,1.7c2,4.4-0.3,13.3-3.8,23.2c-1.7,5-3.6,10.2-5,15.4
	c-0.3,1.2-0.6,2.4-0.8,3.6c-0.1,0.5-0.2,1.3-0.3,1.4l-0.2,0.2c-0.3,0.2-0.6,0.7-0.6,1.4c-0.2,1.4,1.5,3.3,3.8,2.9
	c0.6-0.1,1.1-0.3,1.7-0.6c0.3-0.1,0.6-0.3,0.9-0.5c0.4-0.2,0.9-0.9,1.4-1.3c2.1-2.3,4.1-4.5,6-6.6c2.7-2.9,5.2-5.4,7.6-7.5
	c0.4-1.5,0.9-3,1.3-4.6c1.1-3.7,2.5-7.4,4-11.3c3.1-7.7,7.2-15.8,12.3-23.9c1.4-2.4,6.3-9.4,13.3-10c1-0.1,4.1-0.3,6.5,1.6
	c0,0,2.7,2.2,3.7,7.4c-1.8,2.1-5.4,6.3-10.5,14.8c-2.5,4.2-5.3,9.6-8.1,16.4c-1.4,3.4-2.7,7.2-3.9,11.3c-0.6,2.1-1.2,4.3-1.7,6.5
	c-0.4,1.7-0.6,4.1-0.5,5.8c0.1-0.9,0.3-2.5,0.7-3.7c0.1-0.7,0.4-1.3,0.6-1.9c0.3-0.8,0.6-1.6,0.9-2.5c1.2-3.4,2.5-7,4.1-10.7
	c3.1-7.5,7-15.7,12-24.3c0.2-0.5,4.1-7,6.7-10.7c0.1,0.7,0.2,1.3,0.3,2.1c0.5,5.4-4.4,15-9.4,27.9c-1.2,3.2-2.5,6.6-3.7,10.2
	c-0.6,1.8-1.2,3.7-1.7,5.5c-0.5,1.6-0.9,3.3-1.4,5c-0.1,0.5-0.3,1.1-0.3,1.6c0,0.2-0.1,0.7-0.1,0.7l-0.1,0.1
	c-0.1,0.1-0.2,0.3-0.3,0.5c-0.2,0.5,0,1.2,0.6,1.6c0.3,0.2,0.7,0.3,1.1,0.3c0.2,0,0.5,0,0.7,0c0,0,0.4-0.1,0.7-0.3
	c0.4-0.2,0.7-0.4,1.1-0.6c2.9-1.8,6-4.4,8.8-7.2c5.8-5.6,11.1-12.3,16-17.8c9.7-11,17.7-18.6,21.4-19.6c0.6-0.2,2.4-0.6,3.6,0.2
	C307.5,279.9,303.8,288.8,302,293.3z M206.6,344.5c0.8-0.2,1.6-0.4,2.3-0.6c-7.1,2-15.3-0.3-20.4-6.3c-1.7-2-3.2-4.4-4.2-7.1
	c-1-2.5-1.6-5.3-1.8-8c-0.2-1.4-0.2-2.8-0.2-4.2c0-1.2,0.1-2.2,0.2-3.2c0.3-4.2,1.2-7.9,2.3-11.4c-0.8,2.1-1.7,5-2.5,9.3
	c-0.2,1.1-0.3,2.2-0.4,3.3l-0.1,1.7c0,0.7,0,1.5,0,2.3c0.1,3.1,0.5,6.3,1.4,9.3c1.1,3.4,2.8,6.3,4.8,8.6c1.9,2,3.8,3.5,6,4.6
	C198.9,345.2,203.5,345.1,206.6,344.5z M189.6,305.2c-0.1,1.1,0.4-0.4,1.7-4.2c1.3-3.8,3-8,4.9-12.5c0.2-1-0.6,0.3-2.1,3.9
	C192.5,296.1,190.8,300.3,189.6,305.2z M226.1,333.4c-0.1-0.2-0.1-0.3-0.2-0.5c-0.5,0.7-1,1.5-1.5,2.2c-1.1,1.5-2.3,3-3.6,4.3
	c-2.6,2.5-5.4,4.5-8.3,5.7c-5.9,2.3-8.5,1.9-6.8,2.1c8.1-0.7,14.5-5.4,18.4-10.7C224.9,335.3,225.6,334.3,226.1,333.4z M270,335
	c0.6-0.6,1.1-1.2,1.6-1.9c-1.7,1.9-3.6,3.7-5.8,5.5c-2.3,1.8-5.8,4-9,5.1c-6.6,2.5-14.4,2.2-20-2.4c-2.7-2.2-4.7-5-6.2-8.2l-0.4,0.7
	c1.2,2.6,2.7,5,4.8,6.9c6,6,14.9,6.4,21.9,3.6c3.5-1.3,6.7-3.5,8.8-5.1C267.5,337.7,268.9,336.3,270,335z M237.3,300.4
	c0.2,0,0.3,0,0.5,0.1c1.7-4.7,3.7-9.7,6.4-15.2c0.5-1.3-0.7,0.4-2.9,5.2C239.9,293.4,238.6,296.8,237.3,300.4z M286.2,316.5
	c-3.5,5.7-7,11-10.7,15.7c-3.8,4.6-5.7,6.4-4.3,5.4c5.7-5.6,9.3-11,12.2-15.7C286.3,317.2,287,315.5,286.2,316.5z"/>
<linearGradient id="SVGID_00000003084379759927224430000009662103066734608789_" gradientUnits="userSpaceOnUse" x1="1045.1743" y1="108.9498" x2="498.0243" y2="266.717">
	<stop  offset="0" style="stop-color:#7A84ED"/>
	<stop  offset="1" style="stop-color:#00E9CE"/>
</linearGradient>
<path style="fill:url(#SVGID_00000003084379759927224430000009662103066734608789_);" d="M365.5,279c0.1,7.9-1.9,14.6-4.4,20.4
	c-5.2,11.7-12.5,20.8-20.8,28.2c-8.4,7.4-17.9,12.4-27,14.5c-4.5,1-9,1.4-13.3,0.5c-2.2-0.4-4.3-1.4-5.9-2.7
	c-1.7-1.3-2.9-3.4-3.1-5.3c-0.2-3.8,1.7-5.6,2.8-7c1.3-1.4,2.5-2.1,3.4-2.3c0.6-0.2,2.4-0.7,3.5,0.3c0.4,0.3,0.6,0.7,0.8,1.2
	l1.4-0.5c1.8-0.6,4.1-1.8,6.3-3.1c4.4-2.7,8.7-6.3,12.2-10.3c7.2-8,11.9-17.1,13.7-22c0.6-1.5,0.9-2.7,1.1-3.5
	c-1.5,6.1-3.6,9.9-3.7,10.5c-0.3,0.8,1.6-1.6,3.7-6.8c1-2.5,2.1-5.8,2.3-8.9c0.2-1.6,0-2.9-0.2-3.9c-0.2-0.4-0.3-0.9-0.5-1.2
	c0-0.1-0.3-0.6-0.4-0.7l-0.3-0.4c-0.4-0.4-0.7-0.5-2.2-0.7c-1.5-0.1-4,0.2-6.8,1.2c-5.8,2-12.7,6.2-19.4,11.7c-1.4,1-4.2,3.5-8,5.1
	c-6.4,12.9-13.7,27.7-20.2,43c-16.3,36.5-25.8,75.7-31.3,81.2c-0.5,0.5-1.9,1.8-3.3,1.4c-3.5-0.8-4.3-11.5-4.3-16.8
	c-0.2-13.2,1.4-28.3,4.1-41.6c2.7-13.3,6-25,8.5-31.9c1.4-4.3,2.3-6.8,2.3-6.8c-3.2,10-4.6,15.3-4.6,16.3c-0.1,1,1-2.4,3.5-9.2
	c5-13.7,15.2-41.9,36.5-75.5c1.5-2.5,6.3-9.7,13.3-11c1-0.2,4.1-0.7,6.7,1c0,0,2.9,1.9,4.1,7.4c-0.4,0.5-0.8,1-1.2,1.7
	c4.3-2,9.2-3.8,15.4-4.5c3.7-0.3,7.7-0.4,12.1,0.8c4.3,1,9,3.3,12.6,6.5C362.1,261.5,365.5,271.1,365.5,279z M252.7,346
	c-1.7,7.2-3.1,13.5-4,19.3c-1,5.8-1.1,7.9-0.7,6.5c1.3-7.2,2.5-13.6,3.7-19.3C252.9,346.8,253.3,344.7,252.7,346z M275,292
	c-1.4,2.7-3.3,6.4-5.6,11.3c-2.1,5-4.3,10.2-6.2,15.7c-2.1,5.5-3.6,10.9-5.1,16.1c-1.4,5.2-2.4,9.4-3,12.5l-0.4,2.3
	c2.3-9.7,5.4-19.5,8.8-29.4C266.8,310.6,270.6,301,275,292z M282.7,289c1.1-2.1,2.3-4.4,3.5-6.7c-0.4,0.4-0.8,0.9-1.1,1.3
	c0-0.1,0-0.2,0-0.3c-1.8,3.5-3.7,7.2-5.6,11.3C279,295.9,280,294,282.7,289z M291.9,294.6c-0.5-0.1-1-0.2-1.5-0.4
	c-2.6,5.3-5.3,11.1-8,17.7C285.1,306.9,288.3,301,291.9,294.6z M310.3,262.4c-1.1,0.6-2.2,1.3-3.3,2c-0.7,1.1-1.4,2.2-2.1,3.4
	c-0.2,0.3-0.4,0.6-0.6,1c1.2-0.8,2.4-1.6,3.7-2.5c0.4-0.7,0.8-1.3,1.2-2C309.3,264,309.7,263.3,310.3,262.4z M321.1,269.9
	c4.9-2.1,10.8-4.1,16.4-3.2c1.1,0.2-0.2-0.9-5.2-0.6c-5,0.5-10.8,2.7-16.7,6.2C314.4,273.2,316.2,272.1,321.1,269.9L321.1,269.9z
	 M354.7,268.7c-1-2.2-2.1-4.2-3.9-6.2c-1.8-2-4.1-3.9-6.8-5c-5.4-2.6-11.8-2.7-17.3-1.6c-3.7,0.8-7.2,2-10.6,3.5
	c-0.2,0.8-0.5,1.7-0.8,2.6c1.9-0.9,3.9-1.8,6.2-2.7c4.4-1.6,9.7-3.1,16.1-2.5c3.2,0.4,6.7,1.4,9.8,3.5
	C350.5,262.5,352.8,265.3,354.7,268.7z M331.9,304.7c-3.3,5.3-6.9,9.7-10.2,13.1c-3.4,3.5-4.9,4.5-3.7,3.9c4.8-3.7,8.4-8,11.3-12.2
	C332,305.5,332.7,303.7,331.9,304.7z M341.5,275.5c-1.4-2.5-2.8-3.2-5.1-3.8c1.5,0.5,2.7,1,4.1,3c1.4,2,2.1,4.8,1.8,9.1
	c-0.4,4.2-1.8,8.8-3.6,13c-1.7,4.3-3.7,7.6-5,10.1l-1.1,1.8c4.9-7.4,9.3-15.9,10.2-23.9C343.4,280.8,342.8,277.4,341.5,275.5z
	 M336.7,286.1c0,0-0.1,0.5-0.3,1.3C336.5,287,336.6,286.6,336.7,286.1z"/>
<linearGradient id="SVGID_00000039827658185709018320000017671938414267978630_" gradientUnits="userSpaceOnUse" x1="1046.5859" y1="113.8454" x2="499.4359" y2="271.6126">
	<stop  offset="0" style="stop-color:#7A84ED"/>
	<stop  offset="1" style="stop-color:#00E9CE"/>
</linearGradient>
<path style="fill:url(#SVGID_00000039827658185709018320000017671938414267978630_);" d="M460.2,297.6c-4.7,7-10.1,14.3-16,21.4
	c-6,7.1-12.1,13.9-19.5,20.3l-2.5,1.6c0.5-0.2,1-0.5,1.5-0.9c0.5-0.3,1.1-0.8,0.8-0.6l-0.2,0.2l-0.4,0.3l-0.8,0.6l-1.5,1.1l-2.9,2.1
	c-2,1.3-4,2.5-6,3.7c-4.1,2.2-8.4,4.1-13.1,5.3c-2.5,0.7-4.5,0.8-6.4,1c-2,0.2-3.8,0.3-5.6,0.5c-4.5,0.2-9-0.5-12.8-1.7
	c-4.9-1.7-8.4-4.3-10.5-6.2c-2-2-3-3.1-3-3.1c3.9,4.5,8.8,7.5,13.1,8.9c4.3,1.4,7.9,1.8,10.6,1.7c3,0,4.3-0.3,5.6-0.4
	c1.2-0.2,2-0.3,2.4-0.4c0.7-0.2-0.3-0.2-2.8,0c-2.1,0-7.8,0.8-15.3-1.9c-3.8-1.3-7.9-3.9-11.4-7.5c-3.5-3.7-6.1-8.3-7.5-13.3
	c-1.4-5-1.9-10.5-1.2-15.9c0.6-4.5,1.5-9.3,2.9-14.1c2.9-9.7,7.5-20.2,15.2-30c7.8-9.8,18.4-19.1,33.4-23.9
	c2.2-0.6,6.5-1.9,12.2-1.5c2.8,0.2,6.1,0.8,9.4,2.6c2.6,1.5,4.4,3.4,5.4,5.6c0.1,0,0.1-0.1,0.2-0.1c0.9-0.1,2,1.3,2.7,3.4
	c0.7,2.1,0.7,4.6,0.6,6.2c-0.3,4-1.6,7.9-3.3,11.4c-1.7,3.5-3.7,6.6-5.8,9.5c-4.2,5.7-8.5,9.9-11.1,12.5c-1.6,1.5-2.6,2.4-2.6,2.4
	c7.4-7.5,7.3-7.9,2.1-2.8c-5.3,5-16.3,14.7-31.9,26.1c-0.5,0.3-1.4,1-2.5,1.5c0.2,0.8,0.4,1.5,0.8,1.9c0.5,1,0.7,1.4,2.1,2
	c1,0.5,5,0.4,8,0.5c2.5-0.2,5.6-1,8.6-2.2c1.5-0.6,3.1-1.3,4.5-2.1l2.2-1.2l1.1-0.6l0.5-0.3l0.6-0.4c6.6-4.4,13.2-9.8,19.1-14.7
	c5.9-5,11.3-9.7,16.1-13.8c9.5-8.1,16.3-13.7,19.5-14.6c0.7-0.2,2.9-0.8,3.8,0.3C470.9,280.6,463.9,292.1,460.2,297.6z M404.1,344.7
	c1.1-0.5,2.1-1,3.1-1.5c-3.2,1.6-6.7,3-10.6,3.8c-3.9,0.6-7,0.9-11.2,1c-4.3,0-9.2-1-13.4-3.5c-4.3-2.5-7.7-6.4-9.8-10.5
	c-2.1-4.1-3.2-8.5-3.6-12.7c-0.2-2.1-0.1-4.3,0-6.3c0.2-1.8,0.4-3.6,0.7-5.3c1.1-7,3.2-13.8,6.1-20c-1.9,3.7-4.2,9.1-5.8,16.4
	c-0.3,1.8-0.8,3.7-1,5.6c-0.3,1.9-0.6,3.8-0.7,6.2c-0.1,4.7,0.6,9.5,2.6,14.4c2,4.8,5.5,9.4,10.2,12.4c4.7,3,10,4.1,14.6,4
	c4.5-0.1,7.5-0.7,10.7-1.1C399.4,346.8,402,345.7,404.1,344.7z M374,284.8c3.9-6.4,8.9-13.4,16.3-19.5c1.5-1.3-1.2,0.1-6.5,5.5
	c-5.3,5.5-10.3,12.6-14,21.3C369.4,294,370.3,291.3,374,284.8z M387.7,281c-6,7.5-11.5,18.2-13.9,31.5c2.1-7.9,5.7-17,11.9-25.7
	c6-8.6,15.1-17,26.4-21.2c0.3-0.1,2.7-1,5.5-1.4c1.4-0.2,2.8-0.3,3.9-0.2c0.6,0,0.9,0.1,1.3,0.2c0.4,0.1,0.9,0.3,1.2,0.5
	c-0.5,0.2-1,0.5-1.5,0.8c-0.9,0.9-1.7,1.6-4.1,2.6c-2.2,1-5.5,2.4-8.6,4.6c-6.9,4.3-14.6,11.3-20.4,22c-1.5,2.6-2.9,5.7-4.1,8.9
	c6.2-5.1,13.9-11,21.2-17.1c7.7-6.4,14.9-12.9,19.4-18.9c1-1.3,1.9-2.6,2.6-3.9c-1,0.1-2.1,0.2-3.6,0.6c-0.4-0.4-1-0.9-1.8-1.2
	c-0.6-0.3-1.7-0.5-3.3-0.5c-3.2,0-8.2,0.8-13.7,3.5C400.2,268.8,393.7,273.4,387.7,281z M400.1,297c-4.4,3.1-10.2,7.2-16.7,12.2
	c-0.2,0.6-0.3,1.1-0.5,1.7C387.2,307.6,392.8,303.2,400.1,297z M395.1,307.2c-2.2,1.8-4.7,3.7-7.6,5.9c-0.5,0.5,0.4-0.1,2.7-1.8
	c2.3-1.7,4.8-3.7,7.5-6C398.2,304.9,397.3,305.5,395.1,307.2z M420.4,287.3l0.7-1c-3.2,3.9-6.9,7.4-10.6,11.1
	c-3.8,3.6-7.5,7.1-11.4,10.1c1.2-0.9,2.9-2.1,4.9-3.8c2-1.7,4.1-3.6,6.2-5.6c2.1-2,4.1-4,5.9-5.9C418,290.2,419.4,288.6,420.4,287.3
	z M432.9,325.7c-3.8,3.9-7.4,7.4-10.8,10.4l-1.8,1.1c0.4-0.2,0.7-0.4,1-0.6c0.3-0.2,0.8-0.6,0.6-0.4l-0.2,0.2l-0.4,0.3l-0.7,0.5
	l-1.3,1c-0.8,0.6-1.7,1.2-2.4,1.8c-1.6,1.1-3.1,2.1-4.6,3c-7.2,4.2-10.8,5.2-8.5,4.7c4-1.6,7.4-3.4,10.4-5.3c1.5-1,2.9-1.9,4.3-2.9
	c0.7-0.5,1.3-1,2-1.5l1-0.8l0.5-0.4l0.3-0.2l0.1-0.1l0,0l-0.3,0.2c-0.4,0.3-0.9,0.6-1.4,0.8l1.8-1.2c2.1-1.8,3.5-3.1,4.9-4.5
	C432.7,326.6,434.4,324.5,432.9,325.7z M429,277.6c-2.1,3.2-4.1,5.8-5.9,8.2c-1.9,2.3-2.5,3.2-2,2.7c2.4-2.8,4.5-5.4,6.2-7.9
	C428.9,278,429.4,277.1,429,277.6z"/>
<linearGradient id="SVGID_00000177470078002179065350000007245133070077058730_" gradientUnits="userSpaceOnUse" x1="1049.7926" y1="124.9665" x2="502.6427" y2="282.7337">
	<stop  offset="0" style="stop-color:#7A84ED"/>
	<stop  offset="1" style="stop-color:#00E9CE"/>
</linearGradient>
<path style="fill:url(#SVGID_00000177470078002179065350000007245133070077058730_);" d="M523.8,301.3c-0.1,0.5-0.2,1.8-0.8,3.1
	c-1.5,3.3-5.2,3.4-7,3.1c-4.5-0.6-9.4-2.9-13.2-6.2c-3.8-3.3-6.5-7.5-7.7-10.3c-0.8-1.7-1.1-2.8-1.1-2.8c1.8,4.1,3.2,5.7,3.6,6
	c0.4,0.2-0.3-1-1.4-3.7c-1-2.7-2.6-7.3-2.5-13.2c0-0.1,0-0.2,0-0.3c-8.3,6.3-15.7,12.8-19,16.8c-1.5,1.7-2.4,2.7-2.4,2.7
	c3.3-4.2,5.2-6.2,5.5-6.6c0.3-0.4-1.2,0.6-3.8,3.4c-5.1,5.3-15.3,17.4-20.4,38c-0.5,1.5-1.4,5.9-5.5,8.1c-0.6,0.3-2.5,1.3-4.8,1
	c0,0-1.2-0.2-2.7-1.1c-0.4,0.1-0.8,0.2-1.3,0.2c-3.6-0.1-5.3-5-5.8-7.5c-3.3-12.3-1.3-28.3,0.3-34.9c0.5-2.1,0.7-3.3,0.7-3.3
	c-1.6,9.8-1.1,10.1,0.5,3.5c1.8-6.6,5.1-20.2,13.4-36.9c0.6-1.2,2.5-4.9,8.1-4.5c0.8,0.1,3.3,0.3,6,1.7c0,0,3,1.6,5.8,5.1
	c-0.8,1.1-2.2,3.4-4.3,7.8c-1.2,2.4-2.6,5.6-4.1,9.6c1-1,2.2-1.8,3.2-2.7c1.2-2.6,2.3-5.2,3.5-8.2c0.1-0.3,1.4-3.7,2.2-5.8
	c0.3,0.4,0.7,0.9,1,1.3c1.1,1.8,1.5,4.1,1.3,6.7c6.8-4.4,13.8-7.6,19.8-9.5c3-1,5.8-1.7,8.3-2.1c0.3-0.5,0.6-1.1,0.9-1.6
	c0.6-0.9,2.7-3.6,7.6-1.3c0.7,0.3,2.8,1.4,5,3.6c0,0,2.4,2.5,4.9,5.9c-0.5,0.4-1.5,1.2-2.7,3c-1.1,1.8-2.6,4.7-2.3,8.9
	c1.2-2.7,2.8-5.2,4.4-8.8c0-0.1,0.7-1.5,1.1-2.5l0.9,1.2c2.2,3.1,2.7,5.4,2.7,6.8c0.1,1.6-0.9,2.2-1.6,4.7c-0.7,2.6,0,7,1.3,11.1
	C522.5,294.7,524.1,298.5,523.8,301.3z M435.7,305.4c-0.3,3.4-0.5,6.4-0.5,9.1c0,2.7,0.2,3.7,0.4,3c0.1-3.3,0.2-6.3,0.4-9.1
	C436,305.8,436,304.8,435.7,305.4z M444.2,279.7c-0.6,1.3-1.4,3-2.2,5.4c-0.8,2.4-1.5,4.9-2,7.5c-0.6,2.7-1,5.2-1.3,7.7
	c-0.2,2.5-0.4,4.5-0.4,6l0,1.1c0.3-4.6,1.3-9.2,2.2-14C441.5,288.7,442.5,284,444.2,279.7z M453.6,270.8c0.1-0.7-0.5,0.2-1.5,2.5
	c-1.1,2.4-2.2,5.1-3.2,8.2c0,0.7,0.4-0.2,1.4-2.6C451.3,276.5,452.4,273.8,453.6,270.8z M478.2,283.7l0.9-1
	c-4,3.7-7.9,7.7-11.3,12.3c-3.5,4.5-6.1,9.4-8.8,14.1c1-1.3,2.1-3.3,3.7-5.7c1.6-2.4,3.3-4.9,5.2-7.4c1.8-2.6,3.9-4.8,5.7-7.1
	C475.5,286.8,477,284.9,478.2,283.7z M489.8,276.2c-3.2,2.3-6,4.5-8.2,6.7c-2.2,2.2-3,3.1-2.3,2.6c2.8-2.7,5.5-5,7.9-7
	C489.6,276.5,490.5,275.9,489.8,276.2z M500.9,290.2c1.1,1.6,2.1,2.7,2.9,3.4l0.6,0.5c-2.3-2.4-4-5.6-5.4-9.1c-1.3-3.5-2-7.4-1.4-11
	c0,0,0,0,0,0c-0.3,1.1-0.6,2.6-0.5,4.5c0.1,2,0.4,4.1,1.1,6.2C499,286.8,499.9,288.7,500.9,290.2z M508.6,300.6
	c-1.9-1.4-3.6-2.9-5.1-4.2c-1.5-1.4-2.1-2-1.9-1.4c1.7,2,3.4,3.5,5,4.7C508.2,300.7,508.8,301,508.6,300.6z M502.8,274.5
	c0.2,0.5,0.3-0.2,0.8-1.8c0.3-1.1,0.6-2.2,1.1-3.4c-0.2,0.2-0.5,0.3-0.7,0.5C503.4,271.1,502.9,272.7,502.8,274.5z"/>
<linearGradient id="SVGID_00000181083643334137564100000013510771773864079241_" gradientUnits="userSpaceOnUse" x1="1065.9742" y1="181.086" x2="518.8243" y2="338.8531">
	<stop  offset="0" style="stop-color:#7A84ED"/>
	<stop  offset="1" style="stop-color:#00E9CE"/>
</linearGradient>
<path style="fill:url(#SVGID_00000181083643334137564100000013510771773864079241_);" d="M686,305.8c-4.1,16.5-12.5,29-20,36.1
	c-2.3,2.2-4.3,3.8-6,4.9c-1.6,1-2.5,1.6-2.5,1.6c7-4.6,10.4-8.7,12.6-11.6c2.3-2.9,3.3-4.6,3.6-5.1c0.4-1.1-1.7,2.6-8.8,9.5
	c-3.8,3.2-8.8,8-18.8,10.2c-5,1-11.2,0.6-16.8-1.9c-5.4-2.5-9.6-6.1-13-10.5c-3.5-4.8-5.9-10.5-6.9-16.2c-1-5.8-0.8-11.4,0-16.9
	c1.7-11,6-21.2,11.6-31.1c1.5-3,7-11.3,14.4-12.7c1.1-0.2,4.3-0.7,6.8,1.1c0,0,2.7,2.1,3.6,7.8c-2,2.6-6.2,7.6-11.4,17.7
	c-2.5,5-5.4,11.5-6.7,19.4c-1.4,7.7-0.8,17.5,7,23c-4.3-3.9-6.5-9.9-5.7-18.2c0.7-8.3,4.3-18,9.6-28.2c0.2-0.6,4.5-8.3,7.4-12.7
	c0.1,0.7,0.1,1.5,0.2,2.3c0.3,5.1-4.1,14.3-7.6,25.8c-1.7,5.6-2.9,12-2.3,16.8c0.2,2.4,0.9,4,1.6,5.3c1.1,1.7,2.6,2.7,2.4,2.7
	c0,0.3,1.2,0.5,3.7-0.8c2.4-1.2,5.2-3.6,7.7-6.4c5.1-5.6,9.4-12.8,12-19.7c2.7-7.1,4.1-14.4,3.7-20.2c-0.2-2.9-0.9-5.4-2.1-7.5
	c-1.3-2.1-3.3-4.2-5-5.7c-5-4.1-10-5.5-11.9-6.9c-0.6-0.4-2.4-1.6-2.3-3c0.1-1.6,2.9-3.2,6.9-3.7c4-0.6,9.2,0.2,13.1,1.7
	c1.2,0.5,2,0.8,2.8,1.2c2.1,1,4.1,2.2,6.2,3.8c2.1,1.6,4.4,4,6,6.4c3.4,4.9,5,10.1,5.9,15C688.8,288.8,687.9,297.4,686,305.8z
	 M675.2,317.6c-2.3,5.3-5.4,10.4-9.3,15.3c-4,4.8-8.7,9.5-15.9,12.7c-3.7,1.5-8,2.3-12.4,1.9c-4.4-0.5-8.5-2.3-11.6-4.6
	c-6.2-4.3-10.5-11.1-12.1-17.9c0.4,2,1.2,4.5,2.6,7.3c1.4,2.8,3.4,5.8,6.3,8.5c2.9,2.7,6.5,5.2,11.3,6.6c4.6,1.4,10,1.1,14.4-0.4
	c8.9-3.1,13.9-8.6,18-13.6c4.1-5.2,6.3-9.7,7.8-13.1L675.2,317.6z M618.9,324.1c0.8,1.6-0.4-0.9-0.7-7.6c-0.2-6.7,1.1-13.9,3.7-21.4
	c0.4-1.5-0.8,0.6-2.5,6.7C617.8,308,616.5,315.6,618.9,324.1z M683.9,292.2c-0.6,8.7-2.7,16.4-5.1,22.9c-2.5,6.4-3.8,8.8-2.7,7.3
	c3.9-7.9,6.3-15.4,7.4-22.4C684.5,293.1,684.2,290.5,683.9,292.2z"/>
<linearGradient id="SVGID_00000005944910816605415290000000582086537536682651_" gradientUnits="userSpaceOnUse" x1="1072.067" y1="202.2163" x2="524.9171" y2="359.9834">
	<stop  offset="0" style="stop-color:#7A84ED"/>
	<stop  offset="1" style="stop-color:#00E9CE"/>
</linearGradient>
<path style="fill:url(#SVGID_00000005944910816605415290000000582086537536682651_);" d="M808.6,293.6
	c-4.5,11.5-12.2,23.7-18.9,33.6c-3.7,5.3-7.8,10.6-13.1,15.1c-0.7,0.6-1.5,1.2-2.2,1.8c-0.8,0.6-1.9,1.3-2.8,1.9
	c-2,1.2-3.9,2.2-5.8,3c-1.9,0.8-3.7,1.3-5.5,1.6c-1.7,0.5-3.4,0.7-4.9,0.7c-3.7,0.3-6.6-0.4-8.6-1c-1-0.3-1.7-0.5-2.2-0.8
	c-0.5-0.2-0.7-0.3-0.7-0.3c8.1,3.4,15,1.6,19.4,0.3c4.5-1.6,6.7-3.3,7.4-3.7c0.6-0.5-0.3,0-2.9,1.2c-2.5,1.2-6.8,2.9-12.6,3.1
	c-2.9,0.2-6.2-0.4-9.5-1.6c-3.4-1.3-6.6-3.7-9.4-7c-2.8-3.3-4.8-7.7-5.9-12.8c-0.5-2.5-0.9-5.4-0.9-8c0-2.2,0.2-4.4,0.5-6.7
	c0.2-1.1,0.5-2.6,0.7-3.3c0.2-0.9,0.4-1.7,0.7-2.6c0.5-1.7,1-3.5,1.6-5.4c1.1-3.7,2.5-7.4,4-11.3c2.3-5.7,5.2-11.7,8.6-17.7
	c-2.3,1.4-4.5,2.9-6.4,4.5c-5.5,4.4-9.6,9.8-12.3,13.3c-1.7,2.2-2.7,3.5-2.7,3.5c3.7-5.4,5.6-7.8,5.8-8.3c0.2-0.5-1.1,0.8-4,4.3
	c-5.7,7-16.8,22.1-28.3,44.4c-0.9,1.6-3.3,6.5-8.1,7.8c-0.7,0.2-2.9,0.8-5-0.1c0,0-1.7-0.8-3.3-3.4c-1.9-1.9-2.5-5.8-2.7-7.9
	c-1.6-14,2.5-31.5,4.9-38.7c0.7-2.2,1.2-3.6,1.2-3.6c-2.8,10.7-2.4,11.1,0,3.9c2.6-7.2,7.7-21.9,17.6-40c0.7-1.3,2.9-5.3,8.6-5
	c0.8,0,3.3,0.2,6,1.7c0,0,3,1.7,5.6,5.5c-1.5,2.3-5.9,8.5-12.5,24.2c1.2-1.3,2.4-2.7,3.7-4c2.1-3.8,4.2-8.1,6.4-12.9
	c0.1-0.3,1.9-4.2,2.9-6.6c0.3,0.5,0.6,1,0.9,1.5c1.2,2.3,1.1,5.4,0.3,9.1c0.9-0.6,1.8-1.3,2.7-1.9c6.3-3.8,12.8-6.1,18.5-7.2
	c7.6-1.5,13.6-1.1,17.5-0.2c1.3-0.1,3.8,0,6,1.6c0,0,2.7,2.2,3.7,7.4c-1.8,2.1-5.4,6.3-10.5,14.8c-2.5,4.2-5.3,9.6-8.1,16.4
	c-1.4,3.4-2.7,7.2-3.9,11.3c-0.6,2.1-1.2,4.3-1.7,6.5c-0.4,1.8-0.6,4.1-0.5,5.8c0.1-0.9,0.3-2.5,0.7-3.7c0.1-0.7,0.4-1.3,0.6-1.9
	c0.3-0.8,0.6-1.6,0.9-2.5c1.2-3.4,2.5-7,4.1-10.7c3.1-7.5,7-15.7,12-24.3c0.2-0.5,4.1-7,6.7-10.7c0.1,0.7,0.2,1.3,0.3,2.1
	c0.5,5.4-4.4,15-9.4,27.9c-1.2,3.2-2.5,6.6-3.7,10.2c-0.6,1.8-1.2,3.7-1.7,5.5c-0.5,1.6-0.9,3.3-1.4,5c-0.1,0.5-0.3,1.1-0.3,1.6
	c0,0.2-0.1,0.7-0.1,0.7l-0.1,0.1c-0.1,0.1-0.2,0.3-0.3,0.5c-0.2,0.4,0,1.2,0.6,1.6c0.3,0.2,0.7,0.3,1.1,0.3c0.2,0,0.5,0,0.7,0
	c0.1,0,0.3-0.1,0.7-0.3c0.3-0.2,0.6-0.3,1-0.6c2.9-1.8,5.9-4.6,8.8-7.5c6-6.2,11.8-12.1,16.9-17.4c10-10.5,17.2-18.7,20.8-19.8
	c0.6-0.2,2.4-0.8,3.5,0C813.6,279.5,810.5,289,808.6,293.6z M684.7,302.5c-0.8,3.8-1.3,7.1-1.7,10.1c-0.4,3-0.3,4.1,0,3.4
	c0.6-3.7,1.1-7.1,1.6-10.1C684.9,303,685,301.8,684.7,302.5z M696.3,274.4c-0.8,1.4-1.7,3.3-2.8,5.9c-1,2.6-2.1,5.3-2.9,8.3
	c-0.9,2.9-1.6,5.7-2.3,8.5c-0.6,2.7-1,4.9-1.1,6.6l-0.1,1.2c0.9-5.1,2.5-10.2,4-15.4C692.5,284.2,694.1,279.1,696.3,274.4z
	 M707,264.7c0.2-0.7-0.5,0.2-1.8,2.8c-1.4,2.6-2.8,5.6-4.2,9c-0.1,0.8,0.4-0.2,1.7-2.8C704,271.1,705.4,268.1,707,264.7z
	 M730.2,280.3l0.9-1.1c-4,4.3-7.9,9.4-11.7,15c-3.8,5.6-7.2,11.2-10.7,16.5c1.1-1.6,2.6-3.8,4.6-6.6c1.9-2.8,4-5.8,6.1-8.9
	c2.1-3,4.2-5.9,6.2-8.7C727.5,283.8,729.1,281.8,730.2,280.3z M739.5,274.5c2.7-2,3.7-2.7,2.9-2.4c-3.6,2.2-6.4,4.6-8.7,7
	c-2.3,2.4-2.9,3.5-2.3,2.9C734.1,278.9,736.8,276.5,739.5,274.5L739.5,274.5z M775.8,334.8c0.6-0.6,1.1-1.3,1.6-1.9
	c-1.7,1.9-3.4,3.8-5.8,5.6c-2.4,1.9-5.8,4.1-9,5.2c-6.6,2.5-14.4,2.2-20-2.4c-5.6-4.5-8.4-11.8-8.9-19.2c-0.2-3.5,0-6.2,0.6-9.3
	c0.6-2.7,1.2-4.8,1.9-7.2c-0.5,1.3-1,3-1.6,4.9c-0.3,0.9-0.6,2.1-0.9,3.6c-0.3,1.4-0.5,2.9-0.5,4.6c-0.4,6.9,1.7,16.4,7.6,21.9
	c6,6,14.9,6.4,21.9,3.6c3.5-1.3,6.6-3.5,8.8-5.2C773.4,337.5,774.7,336.1,775.8,334.8z M740.9,307.4c-0.2,1.4,0.4-0.5,2.2-5.6
	c1.8-5,4-10.6,6.9-16.6c0.5-1.3-0.7,0.4-2.9,5.2C744.8,295.3,742.6,300.9,740.9,307.4z M791.7,316.8c-3.5,5.2-6.9,10.5-10.5,15.1
	c-3.7,4.6-5.6,6.4-4.2,5.4c5.6-5.7,9-11,11.9-15.5C791.7,317.4,792.5,315.9,791.7,316.8z"/>
<linearGradient id="SVGID_00000145739023568331915470000014473520428647163288_" gradientUnits="userSpaceOnUse" x1="1074.9342" y1="212.1596" x2="527.7842" y2="369.9268">
	<stop  offset="0" style="stop-color:#7A84ED"/>
	<stop  offset="1" style="stop-color:#00E9CE"/>
</linearGradient>
<path style="fill:url(#SVGID_00000145739023568331915470000014473520428647163288_);" d="M852.2,292.3c-2.3,5.2-4.9,10.7-7.6,16.2
	c-2.8,5.5-5.5,10.8-9,16.1c-3.4,5.3-7.2,10.3-11.6,14.6c-2.3,2.2-4.2,3.9-7.2,6c-3.3,2.3-6.5,3.7-9.4,4.7c-3.5,1-6.4,1.6-8.3,1.5
	c-1,0-1.7,0.1-2.2,0.1c-0.5-0.1-0.8-0.1-0.8-0.1c8.3,0.4,14.5-2.9,18.4-5.2c4.2-2.7,4.8-3.7,5.4-4.1c0.4-0.4-0.3,0-1.9,1.1
	c-1.7,1.1-5.8,4-11.2,5.6c-5.4,1.6-12.8,2.5-20.2-1.5c-3.6-2-6.8-5.2-9.2-9.4c-2.4-4.2-3.8-9.4-4.2-15c-0.1-1.5-0.1-2.6,0-3.7
	c0-1.1,0.1-2.3,0.3-3.4c0.2-2.3,0.9-5,1.3-6.4c0.9-3.5,2-7.2,3.3-11c2.6-7.7,6.4-15.8,11-23.5c1.3-2.3,5.3-8.8,11.9-9.7
	c1-0.1,3.9-0.5,6.5,1c0,0,2.9,1.7,4.6,6.8c-1.6,2.3-4.8,6.8-9.4,15.1c-2.3,4.1-4.8,9.2-7,15.8c-1.1,3.3-2.2,6.9-3.2,11
	c-0.4,1.9-0.7,3.5-0.7,5.4c0,1.7,0.1,3,0.6,4.6c-0.2-2.1,0-3.6,0.6-6.6c0.5-2.3,1.9-6.3,3.1-9.8c2.6-7.3,5.9-14.9,10.4-23.4
	c0.3-0.5,3.8-7.1,5.9-11c0.2,0.6,0.4,1.3,0.5,2c1,5.4-3.7,15.5-7.7,27.3c-1,3-2,6.3-3,9.8l-0.7,2.7l-0.6,2.2
	c-0.1,0.4-0.2,0.9-0.3,1.4c0,0.4-0.1,1.4-0.1,1.2c-0.4,0.1-0.8,1.7,0.6,2.1c0.3,0.1,0.7,0.1,1.2,0.1c1.1-0.6,2.7-1.5,4-2.6
	c2.8-2.1,5.7-4.8,8.5-7.6c5.5-5.6,10.6-12.1,15.4-17.2c9.5-10.4,17.2-17.5,20.8-18.3c0.6-0.1,2.4-0.5,3.5,0.4
	C857.5,279.5,854,288.1,852.2,292.3z M822.4,332l1.4-1.8c-1.5,1.9-3.1,3.7-5,5.4c-0.9,0.9-1.9,1.7-2.9,2.6l-1.6,1.3l-2.1,1.4
	c-5.8,3.5-12.9,5.7-19.5,3.9c-6.7-1.7-11.6-7.4-13.8-14c-1.2-3.3-1.7-6.9-1.7-10.2c0-2.9,0.3-5.7,1-8.5c-0.9,3.6-2,7.5-0.6,15.5
	c1.4,7.3,5.7,14.6,13.2,17.5c7.5,2.7,15.5,0.5,21.6-3.5c0.8-0.5,1.5-1.1,2.2-1.6c0.5-0.4,1.1-0.9,1.6-1.3c1-0.8,1.8-1.7,2.6-2.4
	C820.3,334.6,821.5,333.2,822.4,332z M783,313.6c-0.1,1.4,0.4-0.6,1.9-5.4c1.5-4.9,3.3-10.3,5.8-16.3c0.4-1.2-0.7,0.4-2.6,5.1
	C786.1,301.8,784.3,307.3,783,313.6z M803.6,253.9c-1.5-2.4-2.3-5-2.5-7.4c-0.4-4.9,1.2-9.9,4.7-13.6l4.7-5l5.9,1l0.2,0
	c0.1,0,0.3-0.2,0.4-0.2c3.1-1.2,7.2-1.5,11.7,1c2.2,1.2,4.5,3.3,5.9,6c1.5,2.7,2.1,5.8,2,8.3c-0.2,5.2-2,8.1-3.5,10.4
	c-1.5,2.2-3.2,3.6-4.5,4.6c-1.7,1.2-2.9,1.7-2.9,1.7c4.3-2.6,5.4-4.7,5.6-5.1c0.1-0.5-0.8,0.6-3.3,2.3c-1.3,0.8-3,1.8-5.6,2.7
	c-2.6,0.7-6.8,1.7-12.3-0.8C807.5,258.5,805.1,256.3,803.6,253.9z M806.9,252.1c0.8,1.5,2.7,3.8,6,5c3.3,1.1,6.5,0.7,8.7-0.2
	c2.3-0.9,3.8-2.1,5-3.5c1.2-1.4,1.9-2.7,2.3-3.9l0.3-0.9c-1.5,3.5-3.8,5.5-7.4,7.3c-1.8,0.8-4.2,1.6-7.3,1.1
	C811.5,256.7,808.4,254.6,806.9,252.1z M811.2,249.3c0.5,0.3,0-0.4-0.5-2c-0.4-1.7-0.4-3.4,0.2-5.2c0-0.4-0.5,0-0.9,1.6
	C809.6,245.2,809.7,247.3,811.2,249.3z M814.2,249.1c0.1,0,0.2,0,0.4,0c0.1,0,1.3-0.1,2.1-0.3l2.1-3.9c0,0-0.1-0.1-0.2-0.1
	c0,0-0.1,0-0.1,0c0,0,0,0-0.1,0c0,0,0,0,0,0c0,0,0,0,0,0c0,0,0,0,0,0c0,0,0,0,0,0c0,0-0.1,0-0.1,0c0,0,0,0,0,0c-0.1,0-0.3,0-0.4,0
	c0.2,0,0.3,0,0.4,0c-0.1,0-0.3,0-0.5,0.1c0,0,0,0,0,0c0,0.2-0.1,0.5-0.2,0.8l1.1-0.7l-1.3,1.2c-0.1,0.6-0.3,1.2-0.4,1.9
	c-0.2-0.1-0.4-0.2-1.3-0.3L814.2,249.1z M817.2,245c0.1-0.1,0.3-0.1,0.4-0.2C817.5,244.9,817.4,244.9,817.2,245
	C817.3,245,817.3,245,817.2,245z M818.2,242.6c0.1,0,0.3,0.1,0.4,0.1c-0.1-0.2-0.2-0.4-0.3-0.6C818.3,242.3,818.3,242.4,818.2,242.6
	z M818.7,244.7L818.7,244.7C818.7,244.7,818.7,244.7,818.7,244.7C818.7,244.7,818.7,244.7,818.7,244.7z M837.1,314.3
	c-3.2,5.4-6.4,10.5-9.6,15c-3.3,4.4-4.9,6.2-3.7,5.2c4.9-5.5,8.1-10.6,10.8-15.1C837.2,314.9,837.8,313.3,837.1,314.3z M831.8,248.4
	c-0.8,2.5-1.2,3.2-0.7,2.9c1.5-2.7,2.5-6.2,1.7-10.1c-0.9-3.9-2.3-4.9-1.9-3.9C833.3,241.7,832.5,246,831.8,248.4z"/>
<linearGradient id="SVGID_00000000200031020961256520000003324319994452399021_" gradientUnits="userSpaceOnUse" x1="1089.4982" y1="262.5181" x2="542.5895" y2="420.2156">
	<stop  offset="0" style="stop-color:#7A84ED"/>
	<stop  offset="1" style="stop-color:#00E9CE"/>
</linearGradient>
<path style="fill:url(#SVGID_00000000200031020961256520000003324319994452399021_);" d="M914.7,286.6c2.6-2.8,5.5-5.5,8.8-7.4
	c6.8-4,15.6-4.6,22.9-1.6c9.6,4,15.9,13.5,18.7,23.4c4.8,17.2,4.4,41.1-5.4,56.6c-9,14.3-24,23.8-38.8,31.2
	c-38,18.8-80.2,27.8-122.5,31.4c-30.8,2.6-61.7,2.4-92.6,1.5c-29-0.9-59.8-4.3-88.2,2.6c-2,0.5-4,1-5.9,1.6
	c-11.5,3.5-22.9,9.8-28.5,20.5c0-7.4-0.1-5.3-0.1-9.6c0-29.9,32.9-38,57.1-39.1c41.7-1.9,83.6,0.8,125.4-0.3
	c19.4-0.5,38.7-1.7,57.9-4.2c29.7-3.9,59.2-10.8,86.5-23.1c24.3-10.9,54.2-27.1,56.6-56.8c0,1.2-0.1,2.3-0.1,3.5
	c-0.1,4.4,0.4,9.2-0.4,13.5c-3.7-10.4-6.5-21.2-14.9-29.2c-7.9-7.5-18.7-8.5-27.2-1.6c-8.4,6.9-12.7,17.7-19.5,25.9
	c-7.7,9.4-16.1,18.1-27.1,23.6c-11.3,5.7-24.8,7.7-36.8,3.6c-12-4.1-21.8-15-23-27.6c1.8,12.4,11.3,23.4,23.3,27
	c-8.7-3.4-16-10.4-19.8-19c-5.2-11.8-3.5-25.6,0.5-37.8c4.8-14.5,13-28,24.2-38.3c9.4-8.8,22.5-15.5,35-12.2
	c8.9,2.3,16.2,10,18.2,18.9c2,9-1.5,18.9-8.6,24.8c-2.6,2.2-5.9,3.8-9.3,3.6s-6.8-2.6-7.3-6c-0.7-6.1,7.6-10.2,7.2-16.3
	c-0.2-4.1-4.7-7-8.9-6.8c-4.1,0.2-7.8,2.6-11,5.2c-9.7,8.1-16.7,19-20.9,30.9c5.1-12.3,13.6-23.1,24.3-30.9c3.2-2.3,7.5-4.5,11-2.6
	c2.4,1.3,3.6,4.4,3.2,7.1s-2.1,5.1-4.2,6.9c-0.1-1.6,0.5-3.2,0.4-4.9c-0.1-1.6-1.1-3.5-2.8-3.4c-0.8,0-1.5,0.5-2.2,1
	c-12.8,9.9-21.9,24.5-25,40.4c-0.8,4-1.1,8.4,1.1,11.8c2.7,4.3,8.6,5.4,13.6,4.8c6.8-0.9,12.9-4.5,18.6-8.4
	c11.8-8.1,22.2-18.2,31.7-28.9C911.5,290.2,913,288.4,914.7,286.6z M856.8,348.7c1.3-0.2,2.7-0.3,4-0.6c-8.1,1.4-17.8,0.4-25.8-5.3
	c-3.9-2.6-7.4-7-9.4-11.4c-2.1-4.5-2.9-9.2-3.1-13.5c-0.4-8.8,1.4-16.7,3.8-24c2.4-7.2,5.9-14.3,10.3-20.5
	c-2.7,3.6-6.3,9.2-9.3,16.6c-3,7.5-5.4,15.8-5.6,25.6c0,4.9,0.7,10.1,2.9,15.1c2,4.9,5.9,9.7,10.1,12.4
	C843.3,349.1,851.6,349.1,856.8,348.7z M846.4,269.6c2.7-3.1,5.8-6.3,9.5-9.2c1.8-1.5,3.9-2.8,6.2-4.1c2.4-1.3,5.3-2.5,8.2-3.1
	c1.2-0.2,0.9-0.4-0.9,0c-0.9,0.2-2.2,0.5-3.7,1.1c-1.6,0.6-3.5,1.5-5.3,2.5c-7.6,4.4-14.1,11.3-19.9,19.8
	C839.5,278.6,841,275.9,846.4,269.6z M892.7,332.4c-3.9,3.6-7.9,6.9-11.9,9.7c-4.5,3.2-9.4,5.5-14.2,7c-9.6,2.7-14,1.9-11.2,2.3
	c6.7-0.2,12.5-1.9,17.7-4.2c2.6-1.2,5-2.5,7.2-4.1c2-1.4,3.7-2.7,5.4-4.1C892.4,333.5,894.3,331,892.7,332.4z"/>
<g>
	
		<linearGradient id="SVGID_00000146470587521797920590000006562036584264626103_" gradientUnits="userSpaceOnUse" x1="586.0952" y1="378.1408" x2="602.2065" y2="410.3635">
		<stop  offset="0" style="stop-color:#7A84ED"/>
		<stop  offset="1" style="stop-color:#00E9CE"/>
	</linearGradient>
	<path style="fill:url(#SVGID_00000146470587521797920590000006562036584264626103_);" d="M607.4,446.5c0.2,0,0.5,0,0.7,0
		c0.5,0.1,1,0.2,1.6,0.2c2.8,0.2,5.5,0.3,8.3,0.5c6.1,0.4,12.2,0.9,18.3,1.3c6.1,0.4,12.1,0.8,18.2,1.2c7.1,0.5,14.3,1,21.4,1.5
		c5.9,0.4,11.8,0.8,17.7,1.2c1.7,0.1,2.8,1.1,3.3,2.7c0.1,0.4,0.2,0.8,0.3,1.2c0,0.1,0,0.2,0,0.2c-0.2,1.6-0.9,3-1.7,4.3
		c-0.6,1.1-1.3,2.2-1.9,3.4c-6.9,12.1-13.8,24.3-20.7,36.4c-1.2,2.2-3,3.7-5.3,4.6c-1.4,0.6-2.9,0.9-4.4,1.2c-1.2,0-2.4,0-3.6,0
		c-0.2-0.1-0.4-0.1-0.5-0.2c-26.1-5.6-52.2-11.1-78.3-16.7c-3.3-0.7-6.5-1.3-9.8-2.1c-1.8-0.4-3.5-1.2-4.1-3.2
		c-0.6-2,0.8-3.2,2.1-4.4c9.9-9.4,19.8-18.9,29.6-28.3C601.1,449.1,603.8,447,607.4,446.5z"/>
</g>
<linearGradient id="SVGID_00000121997154722155549710000011104631324566373278_" gradientUnits="userSpaceOnUse" x1="1132.941" y1="477.9645" x2="374.2429" y2="448.6712">
	<stop  offset="0" style="stop-color:#7A84ED"/>
	<stop  offset="1" style="stop-color:#00E9CE"/>
</linearGradient>
<polygon style="fill:url(#SVGID_00000121997154722155549710000011104631324566373278_);" points="592,457.2 690.1,469.8 696.5,458 
	601.5,448.5 "/>
<linearGradient id="SVGID_00000134962881430423054140000007253537477682639806_" gradientUnits="userSpaceOnUse" x1="191.2812" y1="231.2897" x2="184.5677" y2="794.1045">
	<stop  offset="0" style="stop-color:#7A84ED"/>
	<stop  offset="1" style="stop-color:#00E9CE"/>
</linearGradient>
<path style="fill:url(#SVGID_00000134962881430423054140000007253537477682639806_);" d="M235.8,443c28.9,0,53.3,9.9,73.2,29.7
	c20,19.8,29.9,42.6,29.9,68.4c0,36.5-13.1,66.3-39.4,89.2c-26.2,22.9-58.6,34.4-96.9,34.4h-75.7l-22.8,108.4H33.4L103.2,443
	L235.8,443z M160.8,506.7l-20.3,94.2h69.3c16,0,29.5-5.3,40.5-15.8c11.1-10.5,16.6-23.3,16.6-38.3c0-10.7-4.1-20.1-12.2-28.1
	c-8.1-8-18.2-12-30.2-12H160.8z"/>
<linearGradient id="SVGID_00000178924317487540428190000015472087954483453347_" gradientUnits="userSpaceOnUse" x1="501.7204" y1="234.9928" x2="495.0069" y2="797.8076">
	<stop  offset="0" style="stop-color:#7A84ED"/>
	<stop  offset="1" style="stop-color:#00E9CE"/>
</linearGradient>
<path style="fill:url(#SVGID_00000178924317487540428190000015472087954483453347_);" d="M393.8,537.8
	c33.9-32.2,73.1-48.3,117.5-48.3c41,0,74.5,12.6,100.6,37.9c26.1,25.3,39.1,55.8,39.1,91.7c0,28-7.8,54.4-23.4,79.2
	c-15.6,24.7-36.3,44.4-62.1,59c-25.8,14.6-53.1,21.9-82.1,21.9c-41,0-74.6-12.6-101-37.9c-26.4-25.3-39.5-56-39.5-92.3
	C342.9,607.1,359.9,570,393.8,537.8z M436.4,573.7c-20.7,20.8-31.1,44.7-31.1,71.7c0,22.7,7.6,41.8,22.8,57.1
	c15.2,15.3,34.7,23,58.6,23c26.2,0,49.8-10.2,70.6-30.5c20.9-20.3,31.3-44.5,31.3-72.6c0-22.7-7.7-41.7-23.1-57
	c-15.4-15.2-34.8-22.9-58.3-22.9C480.7,542.5,457.1,552.9,436.4,573.7z"/>
<linearGradient id="SVGID_00000111895411639924593820000007850225608482681984_" gradientUnits="userSpaceOnUse" x1="782.2213" y1="238.3387" x2="775.5078" y2="801.1535">
	<stop  offset="0" style="stop-color:#7A84ED"/>
	<stop  offset="1" style="stop-color:#00E9CE"/>
</linearGradient>
<path style="fill:url(#SVGID_00000111895411639924593820000007850225608482681984_);" d="M801.1,708.1c11.5-6.9,17.3-17.7,17.3-32.4
	c0-8.5-4.5-16.2-13.6-22.9c-9.1-6.7-20-12.8-32.9-18.2c-12.9-5.4-25.8-11.4-38.7-18c-12.9-6.6-23.9-15.7-32.9-27.4
	c-9.1-11.7-13.6-25.5-13.6-41.3c0-30.4,11.3-55.6,33.8-75.5c22.5-19.9,53.1-29.9,91.8-29.9c13.2,0,25.9,1.5,38.2,4.6
	c12.3,3.1,22.4,6.7,30.2,10.8c7.9,4.1,14.8,8.3,20.8,12.6c6,4.3,10.2,8,12.6,11.1l4,4.5l-47.9,41.6c-1.8-1.8-4.3-4.1-7.5-7
	c-3.2-2.8-10-6.6-20.2-11.3c-10.3-4.7-20.9-7.1-32-7.1c-15.3,0-27.2,3.2-35.8,9.7s-12.9,15.1-12.9,25.8c0,7.3,3.3,14,9.9,20
	c6.6,6,14.7,11,24.4,15.2c9.7,4.1,20.3,9,31.8,14.5c11.5,5.5,22.1,11.4,31.8,17.5c9.7,6.1,17.8,14.4,24.4,24.8
	c6.6,10.4,9.9,22.4,9.9,35.8c0,34.3-11.8,61.7-35.5,82.1c-23.7,20.5-56.8,30.7-99.3,30.7c-15,0-29.4-1.8-43.3-5.5
	c-13.9-3.7-25.4-8.1-34.6-13.1c-9.2-5.1-17.3-10.3-24.2-15.5c-6.9-5.2-11.8-9.7-14.8-13.3l-4.7-5.6l47.4-40c2.1,2.4,5.2,5.5,9.2,9.2
	c4,3.7,12.7,8.7,25.8,14.7c13.2,6.1,27,9.1,41.3,9.1C776.3,718.5,789.6,715,801.1,708.1z"/>
</svg>
