<?xml version="1.0" encoding="UTF-8"?>
<svg id="Layer_1" data-name="Layer 1" xmlns="http://www.w3.org/2000/svg" xmlns:xlink="http://www.w3.org/1999/xlink" viewBox="0 65 288 145">
  <defs>
    <style>
      .cls-1 {
        fill: #016d9c;
      }

      .cls-2 {
        fill: url(#linear-gradient-5);
      }

      .cls-3 {
        fill: url(#linear-gradient-6);
      }

      .cls-4 {
        fill: url(#linear-gradient-4);
      }

      .cls-5 {
        fill: url(#linear-gradient-3);
      }

      .cls-6 {
        fill: url(#linear-gradient-2);
      }

      .cls-7 {
        fill: url(#linear-gradient);
      }
    </style>
    <linearGradient id="linear-gradient" x1="38.48" y1="51.05" x2="291.15" y2="127.71" gradientUnits="userSpaceOnUse">
      <stop offset="0" stop-color="#00e6c7"/>
      <stop offset="1" stop-color="#599fe5"/>
    </linearGradient>
    <linearGradient id="linear-gradient-2" x1="27.85" y1="86.08" x2="280.51" y2="162.75" xlink:href="#linear-gradient"/>
    <linearGradient id="linear-gradient-3" x1="18.59" y1="116.61" x2="271.25" y2="193.28" xlink:href="#linear-gradient"/>
    <linearGradient id="linear-gradient-4" x1="25.84" y1="92.69" x2="278.51" y2="169.36" xlink:href="#linear-gradient"/>
    <linearGradient id="linear-gradient-5" x1="13.91" y1="132.02" x2="266.58" y2="208.68" xlink:href="#linear-gradient"/>
    <linearGradient id="linear-gradient-6" x1="17.3" y1="120.85" x2="269.96" y2="197.52" xlink:href="#linear-gradient"/>
  </defs>
  <g>
    <path class="cls-1" d="M49.3,181.84l-1.13,9.27h-6.12l3.36-27.5h9.1c1.64,0,3.04.2,4.2.59,1.16.4,2.12.94,2.87,1.64s1.3,1.52,1.65,2.47.53,1.97.53,3.07c0,1.5-.23,2.88-.69,4.16-.46,1.28-1.16,2.38-2.1,3.31-.94.93-2.14,1.66-3.59,2.19-1.45.53-3.16.79-5.13.79h-2.95ZM51,168.19l-1.11,9.02h2.96c.88,0,1.62-.13,2.22-.39s1.08-.62,1.45-1.09c.37-.47.64-1.04.8-1.69.16-.65.25-1.37.25-2.15,0-.54-.07-1.04-.22-1.49-.15-.45-.37-.84-.67-1.17-.3-.33-.68-.58-1.14-.76-.46-.18-1-.27-1.63-.27h-2.91Z"/>
    <path class="cls-1" d="M84.74,168.34h-10.17l-.83,6.64h7.79l-.6,4.57h-7.76l-.83,6.81h10.25l-.6,4.74h-16.42l3.4-27.5h16.38l-.6,4.74Z"/>
    <path class="cls-1" d="M108.77,163.6l-.64,4.87h-6.98l-2.79,22.63h-6.12l2.76-22.63h-7.02l.6-4.87h20.2Z"/>
    <path class="cls-1" d="M116.38,180.84l-1.26,10.27h-6.12l3.36-27.5h8.34c1.69,0,3.12.18,4.31.54,1.19.36,2.16.85,2.92,1.48s1.31,1.38,1.65,2.24c.35.86.52,1.8.52,2.8s-.14,1.98-.41,2.89c-.27.91-.66,1.74-1.18,2.5-.52.76-1.15,1.43-1.9,2.02-.75.58-1.6,1.07-2.56,1.44.38.21.73.47,1.07.77.33.3.59.68.78,1.13l4,9.68h-5.55c-.52,0-.95-.1-1.3-.3-.35-.2-.6-.49-.74-.87l-2.98-8.14c-.14-.35-.32-.6-.56-.75-.23-.14-.58-.22-1.03-.22h-1.38ZM117.95,168.19l-1.04,8.4h2.25c.88,0,1.63-.13,2.25-.41.62-.27,1.12-.63,1.5-1.09s.66-.98.83-1.58c.17-.6.25-1.24.25-1.91,0-.52-.08-.98-.23-1.41-.15-.42-.39-.78-.71-1.08s-.72-.53-1.21-.69c-.48-.16-1.05-.25-1.71-.25h-2.19Z"/>
    <path class="cls-1" d="M160.23,175.59c0,1.48-.17,2.91-.52,4.27-.35,1.36-.84,2.62-1.47,3.79-.64,1.17-1.4,2.23-2.3,3.19-.9.96-1.91,1.77-3.03,2.44-1.12.67-2.33,1.2-3.64,1.57-1.31.37-2.69.56-4.13.56-1.81,0-3.44-.32-4.88-.95-1.44-.63-2.66-1.5-3.67-2.6-1.01-1.1-1.78-2.4-2.31-3.89-.54-1.49-.8-3.1-.8-4.82,0-1.48.17-2.91.52-4.27.35-1.37.84-2.63,1.47-3.8s1.41-2.23,2.31-3.19,1.92-1.77,3.04-2.44c1.12-.67,2.33-1.2,3.64-1.57s2.69-.56,4.15-.56c1.8,0,3.42.32,4.86.95,1.44.64,2.66,1.51,3.66,2.61,1,1.11,1.77,2.41,2.3,3.91.54,1.5.8,3.1.8,4.81ZM153.92,175.74c0-1.13-.13-2.16-.41-3.09s-.67-1.72-1.19-2.38-1.16-1.17-1.92-1.53c-.76-.36-1.61-.54-2.57-.54-1.26,0-2.38.26-3.38.78s-1.84,1.25-2.54,2.2c-.7.94-1.23,2.08-1.6,3.41-.37,1.33-.56,2.8-.56,4.41,0,1.13.13,2.16.4,3.08.26.92.65,1.71,1.16,2.36.51.65,1.14,1.16,1.9,1.52.76.36,1.62.54,2.59.54,1.26,0,2.39-.26,3.39-.77,1-.52,1.85-1.25,2.55-2.19.7-.94,1.24-2.08,1.61-3.4.38-1.32.57-2.79.57-4.4Z"/>
  </g>
  <g>
    <path class="cls-7" d="M230.64,113.67c.46.74,1.19,1.42,2,1.78,1.39.62,2.68,1.12,4.81.3,0,0,.38-.17.89-.54.41-.3.91-.73,1.38-1.4.45-.68,1-1.59,1.07-3.19.03-.77-.16-1.74-.62-2.56-.45-.84-1.15-1.48-1.82-1.85-1.38-.75-2.65-.65-3.61-.29-.04.01-.08.05-.12.06h-.05s-1.5-.22-3.27,1.22c-1.08,1.15-1.59,2.68-1.46,4.18.07.76.3,1.54.77,2.29Z"/>
    <path class="cls-6" d="M127.45,116.32s-.04-.05-.02-.02c0,0,.01.01.02.02Z"/>
    <path class="cls-5" d="M142.34,129.2c.18-.4.23-.82.24-.96.09-.85-.4-2.01-.77-3.27-.4-1.24-.62-2.62-.41-3.41.21-.77.52-.96.49-1.44-.02-.45-.18-1.16-.84-2.1l-.78-1.1s-.01.02-.02.03c-.61-.78-1.12-1.31-1.12-1.31-.68-.67-1.31-1-1.53-1.1-1.49-.71-2.16.14-2.33.41-.11.16-.19.33-.29.49-.76.15-1.61.35-2.54.65-1.84.59-3.98,1.58-6.08,2.92.06-.83-.06-1.53-.41-2.08-.07-.1-.37-.49-.46-.61,0,0,0,0,0,0,0,0,0,0,0,0,0,0-.01-.02-.02-.02-.87-1.05-1.78-1.55-1.78-1.55-.84-.45-1.59-.51-1.84-.53-1.71-.11-2.3,1.02-2.48,1.4-2.57,5.15-3.57,9.33-4.12,11.35l-.34,1.48c-.36.31-1.1.92-1.47,1.24-1.8,1.51-3.83,3.18-5.87,4.53l-.19.12-.15.09-.33.19-.68.36c-.46.23-.93.45-1.4.64-.94.37-1.88.63-2.66.69-.92-.02-2.17.02-2.47-.14-.44-.17-.51-.32-.66-.61-.12-.13-.2-.33-.25-.59.34-.18.62-.37.77-.47,4.82-3.5,8.34-6.37,9.98-7.9.79-.79,2.12-2.09,3.41-3.84.65-.91,1.28-1.84,1.8-2.93.53-1.08.93-2.29,1.03-3.52.04-.5.03-1.28-.17-1.92-.21-.65-.56-1.1-.84-1.06-.03,0-.04.03-.07.04-.31-.67-.85-1.27-1.65-1.72-1.01-.54-2.03-.75-2.89-.8-1.75-.12-3.07.27-3.76.47-4.63,1.49-7.9,4.34-10.29,7.36-.86,1.09-1.59,2.21-2.22,3.33,0-.2,0-.41,0-.62,0-2.42-1.05-5.39-3.22-7.27-1.09-1-2.53-1.7-3.87-2.02-1.37-.36-2.6-.33-3.73-.24-1.68.19-3.05.64-4.25,1.16-.02-.08-.05-.17-.1-.3-.38-1.71-1.26-2.29-1.26-2.29-.8-.52-1.74-.36-2.06-.3-2.16.39-3.64,2.63-4.1,3.39-5.21,8.21-8.27,15.4-10.08,20.11-.46.39-.93.73-1.38,1.01-.11.08-.22.13-.33.19-.12.07-.21.12-.23.11-.08.01-.15.01-.22.01-.14,0-.26-.04-.34-.1-.19-.12-.23-.36-.18-.5.02-.07.05-.12.08-.16l.02-.03s.02-.16.03-.23c0-.18.06-.34.09-.5.15-.52.29-1.02.43-1.52.18-.58.36-1.14.54-1.7.37-1.11.77-2.16,1.15-3.15,1.54-3.96,3.05-6.91,2.89-8.58-.02-.23-.12-.75-.15-.96-.34-1.62-1.15-2.28-1.15-2.28-.75-.58-1.68-.53-2-.5-2.14.18-3.65,2.34-4.09,3.07-1.59,2.49-2.83,4.98-3.8,7.36-.47,1.19-.89,2.35-1.24,3.48-.14.48-.27.94-.4,1.4-.71.65-1.49,1.42-2.33,2.3-.59.64-1.21,1.32-1.86,2.02-.14.14-.32.34-.43.41-.1.06-.19.11-.28.15-.18.09-.36.15-.54.17-.72.12-1.23-.46-1.17-.9,0-.21.1-.36.18-.44l.06-.05s.05-.3.08-.45c.07-.35.15-.72.26-1.1.43-1.59,1-3.2,1.52-4.73,1.07-3.04,1.79-5.78,1.16-7.14-.08-.19-.33-.62-.42-.78-.83-1.29-1.81-1.67-1.81-1.67-.88-.35-1.69-.22-1.97-.18-1.81.3-2.55,1.85-2.81,2.41-1.41,2.95-2.69,5.86-3.48,8.65-.32-.87-.72-1.71-1.23-2.5-1.52-2.52-3.88-4.41-6.14-5.68-2.29-1.29-4.53-2.13-6.57-2.96-2.04-.81-3.87-1.62-5.27-2.58-.77-.49-1.17-.91-1.65-1.45-.46-.52-.8-1.15-1.1-1.81-1.16-2.71-.88-6.15.7-8.65.8-1.32,1.87-2.5,3.11-3.54,1.29-1,2.73-1.84,4.23-2.53,3.06-1.28,6.34-1.95,9.34-1.88,1.51-.02,2.91.22,4.22.5.6.21,1.32.33,1.76.58.51.22,1.04.41,1.32.66.8.44.93.82,1.18,1.25.03.13.07.25.13.37.03.14,0,.33.03.49.09.31-.05.75-.06,1.14-.26,1.69-1.16,3.47-1.92,4.86-.77,1.43-1.51,2.54-1.96,3.4-.24.48-.79,1.48-.99,1.87-.8,1.49-1.15,2.41-1.25,2.98-.1.58.05.79.05.79.56.77,2.65.21,3.32-.08,2.31-.85,4.86-2.85,6.77-5.22,1.95-2.32,3.14-5.17,3.51-6.78.13-.71.34-1.36.37-2.13,0-.77.09-1.51-.04-2.31-.16-.8-.25-1.62-.57-2.37-.35-.74-.67-1.55-1.13-2.18-.49-.62-1-1.23-1.53-1.79-.56-.44-1.13-.87-1.71-1.29-.58-.47-1.15-.63-1.72-.94-.57-.25-1.16-.59-1.71-.75-4.46-1.58-8.88-1.71-12.95-1.13-4.08.56-7.85,1.94-11.17,3.93-3.3,1.99-6.16,4.69-7.99,7.97-3.69,6.44-2.89,13.91.63,18.81,0,0,0,0,0,0,0,0,.28.41.79,1.02h0c1.03,1.24,3,3.31,5.58,4.67.27.14.69.32,1.23.58,1.06.48,2.61,1.09,4.36,1.72,2.81,1.05,6.3,2.27,7.84,4.45,1.77,2.38,2.02,5.79-.53,9.38-2.45,3.56-7.25,6.62-11.79,7.51-2.29.45-4.33.21-5.66-.59-.56-.4-.74-.56-.88-1.08-.17-.5-.06-1.45.22-2.43.45-1.59,1.91-4.29,3.43-6.29,1.51-2.06,3.08-3.63,2.95-4.23-.09-.48-1.27-.11-1.68.05-1.15.45-3.97,2.03-6.81,5.77-.69.94-1.4,2-1.98,3.28-.54,1.28-1.07,2.78-.9,4.58.09,1.79,1.25,3.73,2.84,4.83.78.6,1.62,1.03,2.56,1.36.92.42,1.89.57,2.88.73,3.98.54,8.06-.53,11.9-2.33,3.83-1.85,7.56-4.66,10.19-8.93.53-.79.98-1.69,1.33-2.64.12.19.23.37.28.45.14.24.4.6.83,1.11.06.07.33.36.67.65,1,.91,2.65,1.87,4.76,2.02,2.08.17,4.59-.54,6.52-2.39.48-.46.93-.97,1.33-1.52.04-.06.08-.13.13-.19.25.46.52.9.84,1.27.84,1.02,1.85,1.77,2.89,2.17.89.32,1.75.49,2.54.49-.03.1-.05.21-.08.31v.06c-.23.9-.44,1.85-.63,2.82-.83,4.1-1.33,8.74-1.27,12.81-.03,1.64.23,4.94,1.31,5.18.43.1.87-.31,1.02-.45,1.68-1.68,4.61-13.77,9.62-24.98.47-1.12.96-2.22,1.45-3.32,1.02-1.54,1.86-3.11,2.65-4.69.89-1.77,1.74-3.55,2.47-5.24.02-.06.05-.12.07-.18.94-.48,1.66-1.1,2.03-1.37,2.07-1.69,4.2-3,5.97-3.6.88-.31,1.65-.42,2.11-.38.47.06.54.11.67.23l.1.12s.12.18.12.21c.08.09.11.24.16.37.07.32.13.72.07,1.21-.08.96-.27,1.88-.75,2.98-.78,1.76-2.14,3.81-4.55,6.43-1.1,1.19-2.39,2.32-3.75,3.16-.67.41-1.38.76-1.94.96l-.45.15c-.05-.15-.13-.28-.24-.38-.34-.29-.9-.13-1.09-.08-.28.08-.65.3-1.05.72-.36.43-.93,1-.87,2.16.06.59.42,1.22.95,1.63.5.41,1.16.69,1.83.83,1.33.27,2.71.16,4.11-.15,2.79-.64,5.73-2.17,8.31-4.46,1.69-1.52,3.26-3.28,4.59-5.33-.07.42-.13.83-.18,1.23-.2,1.68-.06,3.37.38,4.9.44,1.54,1.24,2.98,2.31,4.1,1.06,1.13,2.34,1.93,3.5,2.32.68.23,3.72.94,5.65.78.6-.05,1.2-.1,1.97-.31,1.44-.37,2.76-.94,4.04-1.62.63-.35,1.25-.72,1.86-1.13l.91-.64.46-.35.24-.19.13-.1.07-.05.04-.04c.95-.82,1.82-1.65,2.65-2.5.02.07.03.14.05.21.18.76.69,2.27,1.8,2.31.15,0,.28-.03.41-.07.48.29.84.35.84.35.71.08,1.29-.22,1.48-.32,1.28-.67,1.56-2.03,1.7-2.49,2.87-6.37,3.55-7.95,6.5-11.53.99-1.22,3.28-3.23,5.83-5.16,0,.03,0,.05,0,.08-.03,1.82.45,3.23.77,4.07.34.84.54,1.21.42,1.15.53.83,1.62,2.19,1.62,2.19,1.17,1.03,2.67,1.75,4.06,1.92.56.09,1.7.08,2.15-.94ZM101.21,126.19c1.81-3.27,4.17-5.45,6.29-6.76.95-.67,1.95-1.08,2.64-1.4.74-.32.98-.53,1.25-.81.15-.1.57-.28.73-.34.47-.13.82-.16,1.12-.2-.22.39-.47.79-.8,1.2-1.38,1.85-3.6,3.86-5.96,5.81-2.26,1.86-4.62,3.67-6.52,5.25.37-1,.8-1.96,1.26-2.75Z"/>
    <path class="cls-4" d="M280.33,128.16c-.85-3.07-2.81-5.99-5.75-7.21-2.25-.93-4.94-.74-7.05.49-1.03.6-1.9,1.41-2.71,2.29-.5.53-.97,1.09-1.45,1.63-2.91,3.32-6.12,6.4-9.74,8.9-1.74,1.2-3.63,2.29-5.72,2.57-1.54.21-3.33-.16-4.18-1.47-.68-1.05-.58-2.41-.34-3.64.95-4.89,3.74-9.41,7.69-12.44.2-.15.42-.29.67-.32.61-.07.99.32,1.15.79.15.43.13,1.19-.12,1.93,0,0,0,0,0,0-.37.56-.63,1.15-.55,1.8.13,1.05,1.18,1.81,2.23,1.86,1.05.05,2.06-.46,2.88-1.12,2.19-1.79,3.26-4.86,2.66-7.63-.6-2.77-2.85-5.11-5.59-5.83-3.84-1.01-7.85,1.06-10.76,3.76-3.44,3.19-5.95,7.34-7.43,11.8-.45,1.34-.79,2.75-.99,4.16-.36.4-.73.8-1.11,1.18-.84.87-1.73,1.69-2.6,2.35-.43.32-.89.61-1.24.79-.14.02-.26,0-.36-.02-.44-.12-.3-.62-.19-.64,0,.06.04-.24.04-.36.04-.15.04-.32.09-.44l.17-.68.22-.82c.3-1.08.6-2.08.92-3.01,1.23-3.64,2.69-6.73,2.37-8.41-.04-.22-.18-.74-.24-.94-.52-1.57-1.43-2.1-1.43-2.1-.82-.48-1.71-.35-2.02-.31-2.02.29-3.25,2.28-3.65,2.99-1.4,2.36-2.58,4.87-3.38,7.23-.39,1.12-.7,2.2-.97,3.23-.58.59-1.16,1.19-1.76,1.81-.9.89-1.84,1.73-2.72,2.3-.12.09-.2.12-.3.17-.1.06-.18.1-.2.09-.08.01-.15.02-.22.01-.14,0-.26-.04-.34-.1-.19-.12-.23-.36-.18-.5.02-.07.05-.12.08-.16l.02-.02s.02-.15.03-.22c0-.17.06-.34.09-.5.15-.52.29-1.02.43-1.52.18-.58.36-1.14.54-1.7.37-1.11.77-2.16,1.15-3.15,1.54-3.96,3.05-6.91,2.89-8.58-.02-.23-.12-.76-.15-.96-.34-1.62-1.15-2.28-1.15-2.28-.67-.52-1.46-.53-1.85-.5-1.18-.28-3.05-.39-5.37.06-1.76.34-3.75,1.04-5.7,2.22-.29.17-.56.38-.84.57.24-1.14.27-2.11-.09-2.81-.08-.16-.33-.53-.42-.68-.81-1.16-1.72-1.68-1.72-1.68-.83-.46-1.59-.51-1.86-.52-1.74-.08-2.43,1.14-2.65,1.55-2.19,3.98-3.61,7.42-4.53,9.87-.04-.63-.11-1.27-.21-1.94-.27-1.49-.78-3.11-1.82-4.61-.49-.73-1.19-1.46-1.83-1.97-.65-.5-1.28-.87-1.91-1.18-.25-.12-.46-.22-.85-.38-1.2-.47-2.78-.72-4.02-.53-1.24.16-2.1.65-2.14,1.15-.04.44.52.79.69.92.57.44,2.13.86,3.66,2.14.53.47,1.15,1.11,1.54,1.77.37.65.59,1.4.65,2.31.12,1.78-.3,4.04-1.15,6.23-.81,2.13-2.14,4.34-3.7,6.08-.77.86-1.64,1.59-2.37,1.97-.77.4-1.15.31-1.14.23.04-.01-.4-.3-.74-.83-.21-.4-.42-.91-.5-1.64-.17-1.45.19-3.43.71-5.16,1.06-3.53,2.42-6.37,2.33-7.93-.02-.24-.08-.82-.1-1.04-.27-1.76-1.11-2.4-1.11-2.4-.77-.56-1.75-.39-2.1-.33-2.28.42-3.97,2.98-4.44,3.9-1.53,2.69-2.74,5.47-3.37,8.41-.3-.79-.68-1.56-1.15-2.29-1.52-2.52-3.88-4.41-6.14-5.68-2.29-1.29-4.53-2.13-6.57-2.96-2.04-.81-3.87-1.62-5.27-2.58-.77-.49-1.17-.91-1.65-1.45-.46-.52-.8-1.15-1.1-1.81-.51-1.18-.74-2.5-.71-3.82.04-1.7.52-3.4,1.41-4.81.8-1.32,1.87-2.5,3.11-3.54,1.29-1,2.73-1.84,4.23-2.53,3.06-1.28,6.34-1.95,9.34-1.88,1.51-.02,2.91.22,4.22.5.6.21,1.32.33,1.76.58.51.22,1.04.41,1.32.66.8.44.93.82,1.18,1.25.03.13.07.25.13.37.03.14,0,.33.03.49.02.07.03.15.03.24,0,.27-.08.59-.09.88-.26,1.69-1.16,3.47-1.92,4.86-.77,1.43-1.51,2.54-1.96,3.4-.12.24-.32.62-.52.99,0,0,0,0,0,0-.19.35-.37.69-.47.88-.8,1.49-1.15,2.41-1.25,2.98-.03.15-.03.27-.03.38,0,.31.09.43.09.43.56.77,2.65.21,3.32-.08,2.31-.85,4.86-2.85,6.77-5.22,1.95-2.32,3.14-5.17,3.51-6.78.13-.71.34-1.36.37-2.13,0-.48.04-.95.03-1.43,0-.29-.02-.59-.07-.9-.16-.8-.25-1.62-.57-2.37-.35-.74-.67-1.55-1.13-2.18-.49-.62-1-1.23-1.53-1.79-.56-.44-1.13-.87-1.71-1.29-.58-.47-1.15-.63-1.72-.94-.57-.25-1.16-.59-1.71-.75-4.46-1.58-8.88-1.71-12.95-1.13-4.08.56-7.85,1.94-11.17,3.93-3.3,1.99-6.16,4.69-7.99,7.97-1.32,2.3-2.06,4.72-2.31,7.12,0,.03,0,.06,0,.09-.02.17-.03.34-.04.51,0,.06,0,.12-.01.19,0,.14-.02.27-.02.41,0,.09,0,.19,0,.28,0,.1,0,.2,0,.3,0,.13,0,.25,0,.38,0,.06,0,.13,0,.19,0,.16,0,.32.02.48,0,.02,0,.05,0,.07.2,3.54,1.44,6.85,3.45,9.38.27.36.57.7.88,1.02,1.1,1.23,2.85,2.89,5.04,4.06-.14-.07-.26-.12-.4-.19,0,0,.15.08.43.23.28.13.69.32,1.23.58,1.06.48,2.61,1.09,4.36,1.72,2.81,1.05,6.3,2.27,7.84,4.45.83,1.12,1.33,2.46,1.36,3.94.03,1.67-.54,3.52-1.88,5.42-2.45,3.56-7.25,6.62-11.79,7.51-2.29.45-4.33.21-5.66-.59-.56-.4-.74-.56-.88-1.08-.06-.18-.09-.43-.08-.71.02-.49.12-1.09.3-1.69.45-1.59,1.91-4.29,3.43-6.29,1.43-1.95,2.91-3.46,2.95-4.12,0-.05,0-.09,0-.13-.09-.48-1.27-.11-1.68.05-1.15.45-3.97,2.03-6.81,5.77-.69.94-1.4,2-1.98,3.28-.48,1.12-.94,2.42-.93,3.93,0,.22.01.44.03.67.09,1.79,1.25,3.73,2.84,4.83.78.6,1.62,1.03,2.56,1.36.92.42,1.89.57,2.88.73,3.98.54,8.06-.53,11.9-2.33,3.83-1.85,7.56-4.66,10.19-8.93.86-1.27,1.5-2.79,1.88-4.43.36.86.82,1.67,1.37,2.42,1.05,1.35,2.33,2.47,4,3.23,1.7.76,3.69,1.21,5.22.92,1.65-.32,2.65-.76,3.42-1.25,0,0,.27-.17.76-.5.5-.33,1.13-.83,1.83-1.5,1.3-1.22,2.67-2.97,3.86-5.17,0,.69.03,1.38.11,2.04.05.67.24,1.84.82,2.44.48.79,1.01,1.05,1.01,1.05.66.27,1.31.1,1.53.04,1.47-.42,2.21-1.91,2.48-2.41,1.29-2.38,6.4-10.19,8.12-12.42,0,0,.31-.4.82-1.09.85-1.09,2.09-2.74,3.79-4.11.59-.49,1.27-.94,1.97-1.37-1.05,1.84-1.92,3.67-2.64,5.43-.48,1.19-.89,2.35-1.24,3.48-.16.57-.32,1.12-.48,1.66-.07.27-.14.54-.21.8-.07.24-.15.69-.21,1.03-.11.71-.16,1.4-.16,2.07,0,.81.12,1.68.27,2.46.34,1.57.88,3,1.72,4.03.84,1.02,1.31,1.59,2.89,2.38.55.28,1.95.64,3.1.56.46,0,.96-.05,1.5-.21.53-.11,1.1-.25,1.68-.5.58-.23,1.17-.56,1.77-.92.29-.18.62-.41.87-.59.22-.18.45-.36.67-.54.26-.22.51-.45.75-.69h0s0,0,0,0c0,0,1.74,3.46,5.49,3.47.15,0,.39-.02.68-.03.6.02,1.47-.17,2.55-.47.86-.31,1.86-.74,2.88-1.43.85-.59,1.41-1.06,2.03-1.66,1.3,1.79,3.19,3.19,5.29,3.92,3.68,1.27,7.84.65,11.32-1.11,3.39-1.72,5.96-4.38,8.34-7.28,2.1-2.54,3.4-5.86,5.99-7.98,2.61-2.13,5.93-1.81,8.36.5,2.12,2.03,3.09,4.62,3.99,7.26-2.46,6.97-10.2,11.09-16.67,13.99-8.43,3.78-17.5,5.93-26.63,7.11-5.91.77-9.98,1.13-15.94,1.29-12.85.35-19.61-.08-32.45.5-7.43.33-21.47,3.08-21.83,18.34-.21,9.21,5.33,12.48,9.3,12.48-6.59-4.42-5.39-10.82-3.9-15.37.6-1.82,2.46-5.56,6.58-7.2,7.34-2.92,10.77-2.11,19.68-1.84,9.5.29,16.2.5,25.77.14,13.04-.5,31.06-3.89,42.75-9.67,4.57-2.26,9.18-5.17,11.95-9.59,2.99-4.77,3.12-12.11,1.65-17.41Z"/>
    <path class="cls-2" d="M180.58,186.82c-.59,1.01.15,2.28,1.32,2.28h23.06c1.1,0,2.11-.59,2.66-1.54l1.45-2.52h-27.46l-1.03,1.78Z"/>
    <path class="cls-3" d="M214.49,171.13h-23.06c-1.09,0-2.11.59-2.66,1.54l-4.83,8.37h27.46l4.4-7.63c.59-1.01-.15-2.28-1.32-2.28Z"/>
  </g>
</svg>