<svg preserveAspectRatio="none" width="100%" height="100%" overflow="visible" style="display: block;" viewBox="0 0 400 400" fill="none" xmlns="http://www.w3.org/2000/svg">
<g id="img_bg">
<path id="Vector 47" d="M287.532 35.8016C269.702 15.8597 196.805 10.5789 128.836 63.9833C60.8667 117.388 9.08066 199.922 18.7903 250.089C28.5 300.257 96.3166 266.817 112.5 279.688C128.683 292.558 82.9795 359.822 123.98 373.081C164.981 386.34 231.365 322.705 250 328.125C268.635 333.546 231.976 360.089 258.984 373.081C285.992 386.073 342.461 374.129 368.385 292.241C394.309 210.354 380.528 118.126 349.337 99.207C318.146 80.2876 267.137 148.438 258.984 132.813C250.831 117.188 305.362 55.7436 287.532 35.8016Z" fill="var(--fill-0, #EEEAE5)" fill-opacity="0.2"/>
</g>
</svg>
