<?xml version="1.0" encoding="UTF-8"?>
<svg id="Layer_1" xmlns="http://www.w3.org/2000/svg" xmlns:xlink="http://www.w3.org/1999/xlink" version="1.1" viewBox="0 0 1080 1080">
  <!-- Generator: Adobe Illustrator 30.0.0, SVG Export Plug-In . SVG Version: 2.1.1 Build 123)  -->
  <defs>
    <style>
      .st0 {
        fill: url(#linear-gradient);
      }

      .st1 {
        fill: #fff;
      }
    </style>
    <linearGradient id="linear-gradient" x1="200.3" y1="833.9" x2="904.2" y2="225" gradientUnits="userSpaceOnUse">
      <stop offset="0" stop-color="#57c0d0"/>
      <stop offset=".5" stop-color="#4dbce1"/>
      <stop offset="1" stop-color="#6ea6d8"/>
    </linearGradient>
  </defs>
  <circle class="st0" cx="540" cy="540" r="465.4"/>
  <g>
    <path class="st1" d="M504.6,407.9s16.7-26.7,21.1-43.2,9.7-28.2-10.5-39.5c-20.2-11.4-49.8-14.2-53.9-14.2s-80.6-3.9-133.1,45.9c-5.8,5.1-63.4,64.7-6.1,122s28.9,19.5,51.6,26.4c17.8,6.6,31.5,12.9,33.8,13.9,2.3,1.1,51.9,23.1,72.7,55.7,4.7,7,28.7,41.2,17.2,94.5-2.8,14.2-17.2,68.1-71.1,104.6-18.6,11.6-59.5,38.3-114,40-19.8.2-63.1-.9-87.2-38.8-2.6-5.4-21.3-36.2,10.9-81.4,3.5-4.7,29.1-41.8,61.5-56.9,5.4-2.5,20.1-7.1,19.7-1.7s-15.1,22.7-15.1,22.7c0,0-25.6,31.2-34.9,53.6,0,0-9.4,20.3-7.9,32.5,1.5,12.2,19.8,18.9,37,18.7,33.5-1,51.6-11.1,70.5-21,37.2-21.9,63.4-52.5,67.1-80.8,1.8-17.5-.5-40.5-23.6-58.6-7.5-5.5-24.3-14.6-42-20.6-24.6-8.1-85.8-27.2-113.4-68.4-6.5-9.9-49-70.2-20.5-148.2,11-35.7,68.5-105.9,175.8-124.1,0,0,127.9-17.4,173.9,55.7,8.4,14.2,26.5,47.7-1.7,103.5-6.9,13.7-27.5,42.2-41.7,52.1-12.1,8.9-29.9,20.2-35.9,22.2s-43.2,15.3-26.8-17.1c16.3-32.4,26.6-49.5,26.6-49.5Z"/>
    <path class="st1" d="M841.5,614l-14.5,25.3c-6.1,10.7-19.8,19.3-30.5,19.3h-244c-19.3,0-23.4-13.3-12.4-32.5l7-12.2h294.5Z"/>
    <path class="st1" d="M911.7,491.7l-46.1,80.3h-294.5l49.6-86.5c6.1-10.7,19.8-19.3,30.5-19.3h247.7c10.7,0,18.9,14.8,12.8,25.4Z"/>
  </g>
</svg>