<svg width="77" height="77" viewBox="0 0 76.9099 77.0001" preserveAspectRatio="xMidYMid meet" fill="none" xmlns="http://www.w3.org/2000/svg">
<g id="Group">
<path id="Vector" d="M38.455 12.5519L41.007 33.9107L38.455 57.8381C21.2947 57.8381 7.33529 43.8787 7.33529 26.7184V14.8051C7.33529 13.5598 8.34321 12.5519 9.58844 12.5519H38.455Z" fill="#F2F8F4"/>
<path id="Vector_2" d="M69.5747 14.8051V26.7184C69.5747 43.8787 55.6153 57.8381 38.455 57.8381V12.5519H67.3216C68.5668 12.5519 69.5747 13.5598 69.5747 14.8051Z" fill="#D1E7E8"/>
<path id="Vector_3" d="M38.4552 0L40.7239 8.5291L38.4552 17.0582H4.50695C2.02249 17.0582 0.000489948 15.0364 0.000489948 12.5518V4.50645C0.000640339 2.02185 2.02249 0 4.50695 0L38.4552 0Z" fill="#143D66"/>
<path id="Vector_4" d="M76.9096 4.50646V12.5519C76.9096 15.0364 74.8877 17.0584 72.4031 17.0584H38.455V0H72.4033C74.8877 0 76.9096 2.02185 76.9096 4.50646Z" fill="#0F1E32"/>
<g id="Group_2">
<path id="Vector_5" d="M51.4094 65.9076C51.1997 64.6811 52.024 63.5167 53.2506 63.3069C58.6048 62.3912 62.2961 58.7245 63.2168 53.3405C63.4265 52.1141 64.591 51.2898 65.8175 51.4995C67.0441 51.7093 67.8684 52.8736 67.6588 54.1002C66.4215 61.3347 61.2789 66.506 54.0101 67.7487C52.7866 67.9582 51.6196 67.1369 51.4094 65.9076Z" fill="#0DDED1"/>
</g>
<g id="Group_3">
<path id="Vector_6" d="M52.3316 75.1263C52.1218 73.8997 52.9461 72.7354 54.1726 72.5256C63.5924 70.9147 70.7571 64.0778 72.4355 54.2626C72.6451 53.0362 73.8088 52.2113 75.0362 52.4215C76.2628 52.6313 77.0871 53.7956 76.8773 55.0222C74.9117 66.5179 66.4281 75.0019 54.9321 76.9675C53.7087 77.1769 52.5417 76.3556 52.3316 75.1263Z" fill="#0DDED1"/>
</g>
<g id="Group_4">
<path id="Vector_7" d="M22.8998 67.7487C15.6081 66.502 10.4851 61.315 9.2511 54.1002C9.04146 52.8736 9.86575 51.7093 11.0923 51.4995C12.3192 51.2898 13.4832 52.114 13.693 53.3405C14.6085 58.6928 18.2772 62.3862 23.6594 63.3069C24.886 63.5167 25.7103 64.6811 25.5007 65.9076C25.2907 67.1351 24.1252 67.9585 22.8998 67.7487Z" fill="#0DDED1"/>
</g>
<g id="Group_5">
<path id="Vector_8" d="M21.9778 76.9674C10.4578 74.9977 1.99296 66.4869 0.0326145 55.0221C-0.17718 53.7955 0.647111 52.6312 1.8737 52.4214C3.10164 52.2114 4.26476 53.036 4.4744 54.2624C6.10764 63.813 13.0515 70.869 22.7372 72.5254C23.9638 72.7352 24.7881 73.8995 24.5783 75.1261C24.3687 76.3538 23.2031 77.177 21.9778 76.9674Z" fill="#0DDED1"/>
</g>
<path id="Vector_9" d="M38.455 21.6758L40.0072 34.3488L38.455 48.7142C30.9999 48.7142 24.9358 42.65 24.9358 35.195C24.9358 27.7414 30.9999 21.6758 38.455 21.6758Z" fill="#143D66"/>
<path id="Vector_10" d="M51.9742 35.195C51.9742 42.65 45.9102 48.7142 38.455 48.7142V21.6758C45.9102 21.6758 51.9742 27.7414 51.9742 35.195Z" fill="#102840"/>
<path id="Vector_11" d="M38.455 32.9419L39.1873 35.0374L38.455 37.4482C37.2128 37.4482 36.2019 36.4372 36.2019 35.195C36.2019 33.9528 37.2128 32.9419 38.455 32.9419Z" fill="#ECF2FF"/>
<path id="Vector_12" d="M40.7082 35.195C40.7082 36.4372 39.6972 37.4482 38.455 37.4482V32.9417C39.6972 32.9419 40.7082 33.9528 40.7082 35.195Z" fill="#D9E5FF"/>
</g>
</svg>
