<svg width="63" height="77" viewBox="0 0 62.5024 77" preserveAspectRatio="xMidYMid meet" fill="none" xmlns="http://www.w3.org/2000/svg">
<g id="Group">
<path id="Vector" d="M60.2465 77H11.921C10.6752 77 9.66515 75.99 9.66515 74.7441V11.921C9.66515 10.6752 10.6752 9.66515 11.921 9.66515H60.2465C61.4923 9.66515 62.5023 10.6752 62.5023 11.921V74.7441C62.5023 75.99 61.4923 77 60.2465 77Z" fill="#D1E7E8"/>
<path id="Vector_2" d="M62.5023 74.7441V11.921C62.5023 10.6752 61.4923 9.66515 60.2465 9.66515H26.4187V77H60.2465C61.4923 77 62.5023 75.99 62.5023 74.7441Z" fill="#B0D7E1"/>
<path id="Vector_3" d="M50.5813 67.3348H2.25586C1.01002 67.3348 0 66.3248 0 65.079V2.25586C0 1.01002 1.01002 0 2.25586 0H50.5813C51.8272 0 52.8372 1.01002 52.8372 2.25586V65.079C52.8372 66.325 51.8272 67.3348 50.5813 67.3348Z" fill="#F2F8F4"/>
<path id="Vector_4" d="M52.8372 65.079V2.25586C52.8372 1.01002 51.8272 0 50.5813 0H26.4187V67.3348H50.5815C51.8272 67.3348 52.8372 66.325 52.8372 65.079Z" fill="#D1E7E8"/>
<g id="Group_2">
<path id="Vector_5" d="M14.3372 17.8013C13.7388 17.8013 13.165 17.5635 12.742 17.1405L10.3258 14.7241C9.44498 13.8432 9.44498 12.4149 10.3258 11.5339C11.2068 10.6531 12.6351 10.6531 13.516 11.5339L14.337 12.355L17.5745 9.11773C18.4553 8.23674 19.8837 8.23674 20.7647 9.11773C21.6457 9.99872 21.6457 11.427 20.7647 12.308L15.9322 17.1405C15.5093 17.5637 14.9354 17.8013 14.3372 17.8013Z" fill="#0DDED1"/>
<path id="Vector_6" d="M14.3372 57.6698C13.7388 57.6698 13.1651 57.4321 12.742 57.009L10.3258 54.5927C9.445 53.7117 9.445 52.2835 10.3258 51.4025C11.2068 50.5216 12.6351 50.5216 13.5161 51.4025L14.3371 52.2236L17.5745 48.9863C18.4554 48.1053 19.8838 48.1053 20.7648 48.9863C21.6457 49.8673 21.6457 51.2955 20.7648 52.1765L15.9323 57.009C15.5094 57.4321 14.9355 57.6698 14.3372 57.6698Z" fill="#0DDED1"/>
<path id="Vector_7" d="M14.3372 44.3803C13.7388 44.3803 13.1651 44.1425 12.742 43.7195L10.3258 41.3033C9.445 40.4223 9.445 38.994 10.3258 38.113C11.2068 37.2322 12.6351 37.2322 13.5161 38.113L14.3371 38.9342L17.5745 35.6969C18.4554 34.8159 19.8838 34.8159 20.7648 35.6969C21.6457 36.5779 21.6457 38.0061 20.7648 38.8871L15.9323 43.7196C15.5094 44.1427 14.9355 44.3803 14.3372 44.3803Z" fill="#0DDED1"/>
<path id="Vector_8" d="M14.3372 31.0907C13.7388 31.0907 13.1651 30.8529 12.742 30.4299L10.3258 28.0136C9.445 27.1326 9.445 25.7043 10.3258 24.8233C11.2068 23.9425 12.6351 23.9425 13.5161 24.8233L14.3371 25.6445L17.5745 22.4071C18.4554 21.5262 19.8838 21.5262 20.7648 22.4071C21.6457 23.2881 21.6457 24.7164 20.7648 25.5974L15.9324 30.43C15.5094 30.8531 14.9355 31.0907 14.3372 31.0907Z" fill="#0DDED1"/>
</g>
<path id="Vector_9" d="M40.9163 16.593H28.835C27.5892 16.593 26.5791 15.583 26.5791 14.3372C26.5791 13.0914 27.5892 12.0813 28.835 12.0813H40.9163C42.1622 12.0813 43.1722 13.0914 43.1722 14.3372C43.1722 15.583 42.1622 16.593 40.9163 16.593Z" fill="#0F1E32"/>
<path id="Vector_10" d="M40.9163 29.8826H28.835C27.5892 29.8826 26.5791 28.8726 26.5791 27.6268C26.5791 26.3809 27.5892 25.3709 28.835 25.3709H40.9163C42.1622 25.3709 43.1722 26.3809 43.1722 27.6268C43.1722 28.8726 42.1622 29.8826 40.9163 29.8826Z" fill="#0F1E32"/>
<path id="Vector_11" d="M40.9163 43.1722H28.835C27.5892 43.1722 26.5791 42.1622 26.5791 40.9163C26.5791 39.6705 27.5892 38.6605 28.835 38.6605H40.9163C42.1622 38.6605 43.1722 39.6705 43.1722 40.9163C43.1722 42.1622 42.1622 43.1722 40.9163 43.1722Z" fill="#0F1E32"/>
<path id="Vector_12" d="M40.9163 56.4616H28.835C27.5892 56.4616 26.5791 55.4516 26.5791 54.2057C26.5791 52.9599 27.5892 51.9499 28.835 51.9499H40.9163C42.1622 51.9499 43.1722 52.9599 43.1722 54.2057C43.1722 55.4516 42.1622 56.4616 40.9163 56.4616Z" fill="#0F1E32"/>
</g>
</svg>
