<svg width="120" height="120" viewBox="0 0 119.86 120" preserveAspectRatio="xMidYMid meet" fill="none" xmlns="http://www.w3.org/2000/svg">
<g id="Group">
<path id="Vector" d="M59.93 19.5614L63.9071 52.8478L59.93 90.1374C33.1867 90.1374 11.4317 68.3824 11.4317 41.6391V23.0728C11.4317 21.1322 13.0025 19.5614 14.9432 19.5614H59.93Z" fill="#F2F8F4"/>
<path id="Vector_2" d="M108.428 23.0728V41.6391C108.428 68.3824 86.6734 90.1374 59.93 90.1374V19.5614H104.917C106.858 19.5614 108.428 21.1322 108.428 23.0728Z" fill="#D1E7E8"/>
<path id="Vector_3" d="M59.9302 0L63.4657 13.2921L59.9302 26.5842H7.02378C3.15191 26.5842 0.000738481 23.4333 0.000738481 19.5612V7.02305C0.000972856 3.15094 3.15191 0 7.02378 0L59.9302 0Z" fill="#143D66"/>
<path id="Vector_4" d="M119.859 7.02305V19.5614C119.859 23.4333 116.708 26.5845 112.836 26.5845H59.93V0H112.836C116.708 0 119.859 3.15094 119.859 7.02305Z" fill="#0F1E32"/>
<g id="Group_2">
<path id="Vector_5" d="M80.1186 102.713C79.7919 100.802 81.0765 98.9871 82.9881 98.6602C91.3323 97.2331 97.085 91.5188 98.5198 83.1281C98.8466 81.2168 100.661 79.9322 102.573 80.2589C104.484 80.5859 105.769 82.4004 105.442 84.312C103.514 95.5866 95.4997 103.646 84.1716 105.582C82.265 105.909 80.4463 104.629 80.1186 102.713Z" fill="#0DDED1"/>
</g>
<g id="Group_3">
<path id="Vector_6" d="M81.5558 117.08C81.2288 115.168 82.5134 113.354 84.425 113.027C99.1051 110.517 110.271 99.8617 112.887 84.5652C113.213 82.6538 115.027 81.3683 116.94 81.6959C118.851 82.0229 120.136 83.8374 119.809 85.749C116.746 103.664 103.524 116.886 85.6086 119.949C83.702 120.276 81.8832 118.996 81.5558 117.08Z" fill="#0DDED1"/>
</g>
<g id="Group_4">
<path id="Vector_7" d="M35.688 105.582C24.3244 103.639 16.3404 95.5559 14.4173 84.312C14.0906 82.4004 15.3752 80.5859 17.2868 80.2589C19.1988 79.9322 21.0129 81.2166 21.3398 83.1281C22.7665 91.4693 28.484 97.2253 36.8719 98.6602C38.7834 98.9871 40.068 100.802 39.7413 102.713C39.4141 104.626 37.5977 105.909 35.688 105.582Z" fill="#0DDED1"/>
</g>
<g id="Group_5">
<path id="Vector_8" d="M34.2511 119.949C16.2979 116.88 3.10591 103.616 0.0508278 85.7487C-0.276125 83.8371 1.00848 82.0226 2.92005 81.6956C4.83372 81.3684 6.64637 82.6535 6.97309 84.5648C9.51841 99.4488 20.34 110.445 35.4347 113.027C37.3462 113.354 38.6308 115.168 38.3039 117.08C37.9772 118.993 36.1607 120.276 34.2511 119.949Z" fill="#0DDED1"/>
</g>
<path id="Vector_9" d="M59.93 33.7804L62.3489 53.5305L59.93 75.9183C48.3115 75.9183 38.861 66.4676 38.861 54.8494C38.861 43.2333 48.3115 33.7804 59.93 33.7804Z" fill="#143D66"/>
<path id="Vector_10" d="M80.9989 54.8494C80.9989 66.4676 71.5484 75.9183 59.93 75.9183V33.7804C71.5484 33.7804 80.9989 43.2333 80.9989 54.8494Z" fill="#102840"/>
<path id="Vector_11" d="M59.9301 51.3381L61.0712 54.6038L59.9301 58.3609C57.9941 58.3609 56.4187 56.7854 56.4187 54.8495C56.4187 52.9135 57.9941 51.3381 59.9301 51.3381Z" fill="#ECF2FF"/>
<path id="Vector_12" d="M63.4414 54.8494C63.4414 56.7853 61.8659 58.3608 59.93 58.3608V51.3377C61.8659 51.338 63.4414 52.9135 63.4414 54.8494Z" fill="#D9E5FF"/>
</g>
</svg>
