<svg width="40" height="40" viewBox="0 0 40 40" fill="none" xmlns="http://www.w3.org/2000/svg">
  <defs>
    <linearGradient id="grad" x1="2" y1="2" x2="38" y2="38" gradientUnits="userSpaceOnUse">
      <stop offset="0.052" stop-color="#0DDED1"/>
      <stop offset="0.9519" stop-color="#519FFF"/>
    </linearGradient>
  </defs>
  <circle cx="20" cy="20" r="20" fill="url(#grad)"/>
  <!-- Coffee cup with cupcake -->
  <path d="M13 17H23V26C23 27.1 22.1 28 21 28H15C13.9 28 13 27.1 13 26V17Z" stroke="white" stroke-width="1.5" fill="none"/>
  <path d="M23 19H25C26.1 19 27 19.9 27 21V21C27 22.1 26.1 23 25 23H23" stroke="white" stroke-width="1.5" fill="none"/>
  <path d="M16 14C16 13 16.5 12 18 12" stroke="white" stroke-width="1.2" stroke-linecap="round"/>
  <path d="M20 14C20 13 20.5 12 22 12" stroke="white" stroke-width="1.2" stroke-linecap="round"/>
</svg>
