<svg width="40" height="40" viewBox="0 0 40 40" fill="none" xmlns="http://www.w3.org/2000/svg">
  <defs>
    <linearGradient id="grad" x1="2" y1="2" x2="38" y2="38" gradientUnits="userSpaceOnUse">
      <stop offset="0.052" stop-color="#0DDED1"/>
      <stop offset="0.9519" stop-color="#519FFF"/>
    </linearGradient>
  </defs>
  <circle cx="20" cy="20" r="20" fill="url(#grad)"/>
  <!-- Multiple location pins icon -->
  <path d="M15 22C15 22 11 17.5 11 15C11 12.8 12.8 11 15 11C17.2 11 19 12.8 19 15C19 17.5 15 22 15 22Z" stroke="white" stroke-width="1.4" fill="none"/>
  <circle cx="15" cy="15" r="1.5" stroke="white" stroke-width="1.2" fill="none"/>
  <path d="M25 28C25 28 21 23.5 21 21C21 18.8 22.8 17 25 17C27.2 17 29 18.8 29 21C29 23.5 25 28 25 28Z" stroke="white" stroke-width="1.4" fill="none"/>
  <circle cx="25" cy="21" r="1.5" stroke="white" stroke-width="1.2" fill="none"/>
  <line x1="16.5" y1="19" x2="22" y2="20" stroke="white" stroke-width="1" stroke-dasharray="2 2"/>
</svg>
